<?xml version="1.0" encoding="UTF-8" standalone="no"?>
<svg
   xmlns:dc="http://purl.org/dc/elements/1.1/"
   xmlns:cc="http://creativecommons.org/ns#"
   xmlns:rdf="http://www.w3.org/1999/02/22-rdf-syntax-ns#"
   xmlns:svg="http://www.w3.org/2000/svg"
   xmlns="http://www.w3.org/2000/svg"
   xmlns:sodipodi="http://sodipodi.sourceforge.net/DTD/sodipodi-0.dtd"
   xmlns:inkscape="http://www.inkscape.org/namespaces/inkscape"
   width="100%"
   height="100%"
   viewBox="0 0 2000 900"
   version="1.1"
   xml:space="preserve"
   style="fill-rule:evenodd;clip-rule:evenodd;stroke-linejoin:round;stroke-miterlimit:1.41421;"
   id="svg6248"
   sodipodi:docname="OIO-banner_2.svg"
   inkscape:version="0.92.3 (2405546, 2018-03-11)"><metadata
   id="metadata6254"><rdf:RDF><cc:Work
       rdf:about=""><dc:format>image/svg+xml</dc:format><dc:type
         rdf:resource="http://purl.org/dc/dcmitype/StillImage" /><dc:title></dc:title></cc:Work></rdf:RDF></metadata><defs
   id="defs6252" /><sodipodi:namedview
   pagecolor="#ffffff"
   bordercolor="#666666"
   borderopacity="1"
   objecttolerance="10"
   gridtolerance="10"
   guidetolerance="10"
   inkscape:pageopacity="0"
   inkscape:pageshadow="2"
   inkscape:window-width="1920"
   inkscape:window-height="1151"
   id="namedview6250"
   showgrid="false"
   inkscape:zoom="0.703"
   inkscape:cx="1000"
   inkscape:cy="450"
   inkscape:window-x="0"
   inkscape:window-y="25"
   inkscape:window-maximized="1"
   inkscape:current-layer="svg6248" />
    <g
   transform="matrix(1.04785,0,0,1.04785,460.025,-396.613)"
   id="g6234">
        <path
   d="M1074.98,785.663L1051.57,749.141L1014.2,536.306L1047.15,514.718L1088.49,737.564L1083.78,785.876L1098.95,786.243L1127.09,786.829C1127.01,781.01 1127.3,776.125 1127.54,773.968C1130.36,749.004 1131.81,734.539 1142.57,711.569C1148.64,698.611 1162.21,684.042 1171.83,682.475C1177.66,681.524 1194.74,679.84 1201.68,681.547C1205.37,682.451 1210.29,684.787 1214.77,688.068C1219.83,691.787 1224.44,696.744 1228.22,702.64C1242.22,724.496 1249.3,756.932 1251.03,783.377C1252.01,798.338 1251.49,818.022 1249.36,829.749C1244.95,854.001 1241.76,869.06 1227.33,888.976C1221.49,897.036 1215.64,899.47 1206.57,902.807C1203.51,903.933 1182.12,903.906 1178.17,903.701C1166.69,903.105 1151.88,890.211 1142.41,870.166C1135.69,855.935 1131.26,836.989 1128.68,817.559C1128.38,815.352 1127.96,809.345 1127.62,802.422C1114.6,802.92 1101.09,803.429 1088.14,803.912L1112.69,839.494L1153.85,1045.25L1118.29,1064.99L1075.73,853.437L1079.07,804.25C1043.74,805.562 1014.65,806.612 1014.65,806.612L1013.79,784.183L1074.98,785.663ZM906.971,637.728C912.731,636.679 939.369,637.137 943.644,637.813C955.864,639.744 968.601,643.445 988.693,680.786C1001.66,704.889 1008.91,736.367 1011.85,764.254C1013.28,777.903 1014.78,804.899 1014,819.21C1013.17,834.544 1007.27,879.253 992.647,912.529C984.972,929.996 971.428,953.633 949.097,956.752C943.495,957.535 919.313,957.84 910.48,957.206C893.053,955.955 876.71,940.427 861.423,909.605C847.374,881.279 839.943,848.159 839.28,798.439C838.511,740.787 847.456,701.319 867.727,668.922C883.293,644.044 899.986,638.999 906.971,637.728ZM921.742,662.992C918.528,663.03 900.904,680.701 894.266,701.527C883.648,734.84 879.864,751.436 879.681,795.467C879.462,847.82 887.158,867.996 895.43,891.221C906.224,921.525 923.349,932.301 925.767,932.052C928.904,931.73 945.528,918.617 955.018,889.279C965.529,856.791 968.172,825.119 967.974,791.818C967.77,757.509 958.743,718.27 947.861,694.002C938.472,673.064 924.193,662.963 921.742,662.992ZM1156.98,801.282C1157.13,804.558 1157.36,807.879 1157.67,811.214C1159.21,827.606 1162.14,843 1169.85,861.525C1171.93,866.533 1174.39,871.439 1177.45,875.46C1181.38,880.627 1185.92,884.334 1187.89,884.939C1190.08,885.609 1200.52,873.906 1205.21,861.432C1216.15,832.348 1215.85,812.125 1216.1,791.644C1216.42,765.629 1211.91,746.789 1204.2,726.611C1197.37,708.743 1187.13,700.24 1185.1,700.505C1182.92,700.788 1172.2,710.09 1166.06,728.472C1161.88,741.013 1160,748.48 1158.2,763.552C1157.4,770.267 1156.82,778.481 1156.73,787.447L1179.66,787.924L1182.36,787.985C1182.36,787.985 1183.15,786.543 1184.21,784.798C1185.44,782.755 1188.88,783.313 1190.78,785.487C1192.85,787.844 1193.92,790.76 1194.11,793.328C1194.39,796.988 1193.06,800.555 1191.44,802.771C1189.28,805.724 1186.69,805.635 1184.86,803.439C1183.69,802.045 1182.59,800.197 1182.59,800.197C1182.59,800.197 1181.44,800.287 1179.77,800.357C1173.14,800.635 1165.4,800.948 1156.98,801.282ZM960.04,809.375C946.293,809.952 930.594,810.305 930.594,810.305C930.594,810.305 929.507,812.059 927.85,814.847C925.562,818.697 920.322,820.769 917.121,820.423C909.8,819.632 904.296,813.766 904.916,795.87C905.383,782.395 909.975,768.605 919.759,768.783C923.196,768.846 926.391,770.686 927.554,773.481C929.852,779.005 930.338,782.278 930.338,782.278L959.886,784.044C960.729,793.951 960.178,802.07 960.04,809.375Z"
   id="path6232" />
    </g>
    <g
   transform="matrix(1.74855,0,0,1.74855,-30.4513,-44.8117)"
   id="g6246">
        <text
   x="171.42052"
   y="206.683"
   style="font-weight:500;font-size:85.78500366px;font-family:AvenirNext-Medium, 'Avenir Next', sans-serif"
   id="text6236">open</text>

        <text
   x="170.60699"
   y="292.46899"
   style="font-weight:500;font-size:85.78500366px;font-family:AvenirNext-Medium, 'Avenir Next', sans-serif"
   id="text6242">infrastructure   </text>

        <text
   x="554.32104"
   y="371.74585"
   style="font-weight:500;font-size:85.78500366px;font-family:AvenirNext-Medium, 'Avenir Next', sans-serif"
   id="text6244">orbit</text>

    </g>
<text
   xml:space="preserve"
   style="font-style:normal;font-weight:normal;font-size:40px;line-height:1.25;font-family:sans-serif;letter-spacing:0px;word-spacing:0px;fill:#000000;fill-opacity:1;stroke:none"
   x="1093.8834"
   y="433.42816"
   id="text6262"><tspan
     sodipodi:role="line"
     id="tspan6260"
     x="1093.8834"
     y="468.81879" /></text>
</svg>