<?xml version="1.0" encoding="UTF-8" standalone="no"?>
<svg
   xmlns:dc="http://purl.org/dc/elements/1.1/"
   xmlns:cc="http://creativecommons.org/ns#"
   xmlns:rdf="http://www.w3.org/1999/02/22-rdf-syntax-ns#"
   xmlns:svg="http://www.w3.org/2000/svg"
   xmlns="http://www.w3.org/2000/svg"
   xmlns:sodipodi="http://sodipodi.sourceforge.net/DTD/sodipodi-0.dtd"
   xmlns:inkscape="http://www.inkscape.org/namespaces/inkscape"
   version="1.1"
   width="1920"
   height="998"
   viewBox="0,0,1920,998"
   id="svg4195"
   sodipodi:docname="OIO.svg"
   inkscape:version="0.92.3 (2405546, 2018-03-11)">
  <metadata
     id="metadata4201">
    <rdf:RDF>
      <cc:Work
         rdf:about="">
        <dc:format>image/svg+xml</dc:format>
        <dc:type
           rdf:resource="http://purl.org/dc/dcmitype/StillImage" />
      </cc:Work>
    </rdf:RDF>
  </metadata>
  <defs
     id="defs4199" />
  <sodipodi:namedview
     pagecolor="#ffffff"
     bordercolor="#666666"
     borderopacity="1"
     objecttolerance="10"
     gridtolerance="10"
     guidetolerance="10"
     inkscape:pageopacity="0"
     inkscape:pageshadow="2"
     inkscape:window-width="1920"
     inkscape:window-height="1151"
     id="namedview4197"
     showgrid="false"
     inkscape:zoom="0.93020833"
     inkscape:cx="927.5827"
     inkscape:cy="452.85987"
     inkscape:window-x="0"
     inkscape:window-y="25"
     inkscape:window-maximized="1"
     inkscape:current-layer="svg4195" />
  <g
     fill="none"
     fill-rule="nonzero"
     stroke="none"
     stroke-width="none"
     stroke-linecap="butt"
     stroke-linejoin="miter"
     stroke-miterlimit="10"
     stroke-dasharray=""
     stroke-dashoffset="0"
     font-family="none"
     font-weight="none"
     font-size="none"
     text-anchor="none"
     style="mix-blend-mode: normal"
     id="g4193">
    <path
       d="M579.5827,733.99459c-14.03813,12.95882 -29.89856,22.16227 -47.58131,27.61035c-17.68275,5.44808 -36.52457,8.30941 -56.52546,8.58399l-86.99962,-0.25557c-15.99993,-0.047 -32.24056,-3.26139 -48.72188,-9.64316c-2.00013,-0.77447 -3.97191,-1.58814 -5.91536,-2.441l0.63884,-13.56947l7.24882,-11.7868l10.67993,-8.53919l6.23468,-8.831l13.45114,-3.68365l10.24293,-14.78841l12.83551,4.81402l12.99247,-5.93789l9.06662,-6.20699l14.07099,3.58826l10.06505,-0.29101l14.7941,-4.19471l11.08927,-2.35512l14.13381,3.18349l15.72079,-5.98678l8.22041,0.8851l11.93261,9.85488l10.91699,-2.9566l11.87919,7.06594l12.22355,1.72391l15.91183,1.99621l14.1068,7.2442l7.16244,11.88619l2.05673,0.12265c-3.68344,4.45808 -7.66072,8.7608 -11.93184,12.90815z"
       fill="#d0d0ce"
       stroke="none"
       stroke-width="1"
       id="path3977"
       style="fill:#000000" />
    <path
       d="M929.84277,398.24398l83.99973,-0.21393l0.16633,65.30875l-7.24115,7.36051l-9.63503,7.82638l-10.9818,5.14425l-0.65723,15.23779l-5.30958,6.50574l-1.64557,9.22841l-5.57137,6.65717l-7.82673,8.42432l1.78917,13.2382l-4.57774,12.64826l-3.2288,15.09108l-3.29264,13.13493l7.42596,9.64657l-1.32256,12.06547l0.21968,14.13445l2.62703,10.94157l-0.93986,11.21745l3.02468,7.73355l-4.2261,16.26789l2.49523,14.39665l10.09001,8.70723l6.27333,12.71682l1.28138,10.96204l8.69511,4.1262l5.76734,8.31601l4.20039,10.00868l13.27747,7.28778l0.07046,27.66466l-83.99973,0.21393z"
       fill="#d0d0ce"
       stroke="none"
       stroke-width="1"
       id="path3979"
       style="fill:#000000" />
    <path
       d="M1194.32491,454.39051l32.86514,-29.74977"
       fill="none"
       stroke="none"
       stroke-width="1"
       id="path3981" />
    <path
       d=""
       fill="none"
       stroke="#00bb31"
       stroke-width="6"
       opacity="0"
       id="path3983" />
    <path
       d="M1118.84005,469.15214l-6.6188,-1.35632"
       fill="none"
       stroke="none"
       stroke-width="1"
       id="path3985" />
    <path
       d=""
       fill="none"
       stroke="#00bb31"
       stroke-width="6"
       opacity="0"
       id="path3987" />
    <path
       d="M1144.73959,470.45121l-18.35604,-1.04719"
       fill="none"
       stroke="none"
       stroke-width="1"
       id="path3989" />
    <path
       d=""
       fill="none"
       stroke="#00bb31"
       stroke-width="6"
       opacity="0"
       id="path3991" />
    <path
       d="M1068.74513,431.47181c15.28151,-11.2115 32.52599,-18.92981 51.73344,-23.15494l0.48832,-0.10742c19.20745,-4.22513 38.1804,-4.4737 56.91886,-0.74571c11.60785,2.30937 22.77219,6.02602 33.493,11.14994l-4.45427,11.80444l-2.61307,8.07215l-6.93533,14.53183l-9.39728,10.46593l-8.30655,7.05229l-12.28427,8.04188l-9.08211,-1.0549l-5.95849,-3.10791l4.40387,-1.69776l-6.78382,0.4564l-5.22785,-2.72681l5.12844,-5.07594l-7.32811,4.13966l-4.05387,-0.39523l-6.02895,-3.79056l-7.85767,-0.81492l-3.35391,4.71824l-2.40548,-0.08032l4.22518,-20.38925l1.8143,-12.93224l-4.70339,10.1658l-7.96223,21.71483l0.00734,0.08455l-10.07435,-9.6467l-14.76676,0.81374l-11.15644,-4.11677l-15.00426,-0.56771l-6.64815,-6.50927l-4.64192,0.19042c5.81786,-6.0572 12.08978,-11.55311 18.81576,-16.48772z"
       fill="#d0d0ce"
       stroke="none"
       stroke-width="1"
       id="path3993" />
    <path
       d="M1152.34738,474.41939l-31.10185,-5.18692"
       fill="none"
       stroke="none"
       stroke-width="1"
       id="path3995" />
    <path
       d=""
       fill="none"
       stroke="#00bb31"
       stroke-width="6"
       opacity="0"
       id="path3997" />
    <path
       d=""
       fill="none"
       stroke="none"
       stroke-width="1"
       id="path3999" />
    <path
       d=""
       fill="none"
       stroke="none"
       stroke-width="1"
       id="path4001" />
    <path
       d=""
       fill="none"
       stroke="none"
       stroke-width="1"
       id="path4003" />
    <path
       d=""
       fill="none"
       stroke="none"
       stroke-width="1"
       id="path4005" />
    <path
       d=""
       fill="none"
       stroke="none"
       stroke-width="1"
       id="path4007" />
    <path
       d=""
       fill="none"
       stroke="none"
       stroke-width="1"
       id="path4009" />
    <path
       d="M1201.75054,552.16088l-4.08241,-23.50885"
       fill="none"
       stroke="none"
       stroke-width="1"
       id="path4011" />
    <path
       d=""
       fill="none"
       stroke="#00bb31"
       stroke-width="6"
       opacity="0"
       id="path4013" />
    <path
       d="M1015.61288,575.24956l-3.47818,-19.4263"
       fill="none"
       stroke="none"
       stroke-width="1"
       id="path4015" />
    <path
       d=""
       fill="none"
       stroke="#00bb31"
       stroke-width="6"
       opacity="0"
       id="path4017" />
    <path
       d=""
       fill="none"
       stroke="none"
       stroke-width="1"
       id="path4019" />
    <path
       d="M1145.41308,629.58958l8.85875,-12.40574"
       fill="none"
       stroke="none"
       stroke-width="1"
       id="path4021" />
    <path
       d=""
       fill="none"
       stroke="#00bb31"
       stroke-width="6"
       opacity="0"
       id="path4023" />
    <path
       d="M1146.07162,630.95256l5.77673,-10.45554"
       fill="none"
       stroke="none"
       stroke-width="1"
       id="path4025" />
    <path
       d=""
       fill="none"
       stroke="#00bb31"
       stroke-width="6"
       opacity="0"
       id="path4027" />
    <path
       d="M1058.52724,528.75314l-13.91332,7.81719"
       fill="none"
       stroke="none"
       stroke-width="1"
       id="path4029" />
    <path
       d=""
       fill="none"
       stroke="#00bb31"
       stroke-width="6"
       opacity="0"
       id="path4031" />
    <path
       d="M1304.84354,594.94502c3.81183,17.59176 4.98897,36.01021 3.53143,55.25535c-1.45754,19.24514 -7.2194,37.12074 -17.28558,53.6268c-10.25077,17.22819 -23.11592,31.44165 -38.59547,42.64039c-15.47954,11.19873 -32.82962,18.88049 -52.05025,23.04526l-0.48866,0.10588c-18.89485,4.09419 -37.7056,4.24786 -56.43226,0.46102c-18.72666,-3.78684 -36.4489,-11.20201 -53.16672,-22.2455c-15.66992,-10.92949 -28.06312,-24.44486 -37.17962,-40.54612c-9.1165,-16.10126 -15.95532,-33.88979 -20.51646,-53.3656l-17.04707,-78.67295l1.19923,-0.86029l3.69844,-14.90617l6.68551,-6.90133l11.21242,-10.83923l6.20543,-5.17221l-3.71565,17.70017l8.44607,-1.28203l11.58052,-8.43572l14.08307,0.20935l9.40664,-1.56009l10.61996,-8.15766l10.24082,1.3216l7.54915,-0.96264l5.23799,-6.73929l7.23945,-2.01582l7.46021,-8.28404l12.56639,-1.43371l12.46847,-10.65301l-11.64669,6.73834l-12.1555,-0.52362l-7.04932,6.3267l-4.47843,0.47123l0.52408,-5.11504l12.89099,-5.17903l4.02993,-13.33266l-7.18817,10.87797l-14.47011,3.95169l-2.54069,8.15751l-3.68414,3.62671l-4.28827,2.3447l-9.82993,-3.27893l-10.20907,6.20032l-8.99575,-0.39724l-13.67219,-2.16669l-6.50651,3.77377l2.75938,-7.51824l9.50711,-6.70499l6.98002,-11.13374l10.91122,-9.01211l-11.33069,5.03416l-7.18975,9.14476l-9.71685,4.71602l-3.97439,8.49906l-3.71049,-9.75506l6.38449,-6.26405l-10.167,4.96307l3.26212,12.42601l-8.50499,1.17015l-6.79707,3.50156l-11.42216,8.85025l-6.89524,4.91236l-3.90817,12.91719l-2.58007,1.32371c-1.24808,-11.71268 -0.894,-23.90726 1.06224,-36.58372c2.69551,-17.46698 8.40311,-33.62547 17.12277,-48.47549c5.96092,-9.50254 12.65366,-18.09458 20.07822,-25.77613l4.64249,-0.17583l6.62767,6.53013l15.00241,0.61484l11.14346,4.15179l14.76924,-0.76735l11.26878,10.85848l15.64805,0.5717l15.4746,0.92027l13.70639,7.20403l9.07875,1.08342l12.30947,-8.00325l8.32866,-7.02616l5.92701,-6.55946l1.10237,5.37718l-3.1888,8.42421l6.74456,15.51846l4.74465,15.49955l-9.24526,14.36721l3.77307,12.49023l-0.58737,2.58467l-11.69676,-17.30238l-0.97029,10.91102l-5.92849,6.98466l1.08467,16.97543l-6.69366,12.02594l-5.15461,13.64807l-3.19143,11.16898l-7.63371,11.68489l1.25084,10.65306l-4.81357,12.70803l-2.07277,2.3873l0.15232,-2.93943l-9.32984,-12.99823l0.62897,11.99264l-11.01316,8.46265l0.18543,12.88889l-8.77711,8.45348l-2.50333,11.55827l-6.99377,7.10451l-4.14709,14.61588l6.47955,-11.36632l8.16,-5.47973l3.66956,-9.93349l9.94334,-6.8287l0.9808,-11.26411l6.78759,-3.81076l4.62782,9.5782l-7.80858,6.30257l-5.41257,11.42694l-2.59243,12.45007l4.07099,11.67619l-8.57376,11.34385l-3.82939,9.43525l6.0696,-6.12142l9.69386,-9.68694l-2.95088,-10.01928l3.71254,-10.79315l6.53268,-9.77002l2.33788,-1.21641l1.51243,6.96352l5.69028,13.40227l-2.24908,14.38547l10.77527,13.78019l-6.80559,-14.27179l4.23392,-14.63127l-3.70544,-13.64807l-0.35948,-11.03951l4.23392,-14.63127l-1.39222,-2.72738l0.11871,-0.11863l5.93368,-11.05111l-0.13074,-8.99615l8.75382,-10.02798l4.31154,-9.51206l6.27472,-11.99116l7.81377,-10.36903l0.03543,-15.31852l4.75625,-3.59505l0.24852,0.36762l2.11098,0.8442l0.64436,2.66543l-3.1888,8.42421l6.79184,10.51868l-7.24535,14.38612l2.81094,8.48095l2.74474,15.48064l-0.18893,8.45258l-0.23621,13.45236l-1.31162,9.89602l4.85832,-8.04644l2.00956,-12.52757l1.96228,-7.52779l-0.9714,-14.55585l-1.03759,-7.55616l9.0187,-13.46133l-5.0185,-9.59389l2.08922,-3.1575l13.13415,4.23l7.76303,12.98982l10.29586,3.3159l5.73608,12.04564l2.46524,9.53533l8.56862,5.96479l-5.43637,-8.45256l-0.89912,-10.77922l-4.16996,-13.28952l-8.72974,-4.55978l-6.1969,-14.23371l-12.16169,-5.66508l1.28895,-11.24004l-11.28617,-6.08796l-0.45126,-6.2367l-1.99972,-11.56544l11.01861,-13.44242l-2.97131,-14.57476l-4.97122,-14.59367l4.96214,-7.49942l-0.99031,-12.55594l2.00956,-12.52757l5.97155,-8.48992l-6.02791,-8.60339l2.42632,-7.7468c1.33048,0.84471 2.65345,1.71301 3.96889,2.60491c14.41024,9.83817 26.24146,21.9405 35.49368,36.30701c9.25221,14.36651 15.84124,29.82169 19.76707,46.36554z"
       fill="#d0d0ce"
       stroke="none"
       stroke-width="1"
       id="path4033"
       style="fill:#000000" />
    <path
       d="M1052.30453,767.02682l-6.90212,-8.37722l-7.91588,-6.30532l-9.51456,-1.45037l-4.38077,-10.13001l-9.6665,-10.37453l-12.16837,-5.43646l-6.53137,-13.07023l-0.63249,-16.79595l-5.1216,-6.53649l-2.32691,-11.01363l-5.66364,-9.72329l-1.30865,-4.123l3.78633,-3.38069l7.24016,-12.32034l-8.45027,8.50778l-4.1068,2.37101l-1.43735,-4.5285l-2.20433,-11.9359l-9.88716,-7.10248l-0.6252,-13.52689l-1.24908,-15.38199l0.74558,-13.4305l-5.52189,-12.16387l5.07237,-10.31978l3.42072,-7.97852l-1.07882,-9.31169l3.21356,-7.75818l-3.75415,-14.78271l9.03767,-8.08602l6.97624,-10.26733l4.81758,-9.13249l80.95046,267.02564z"
       fill="#d0d0ce"
       stroke="none"
       stroke-width="1"
       id="path4035" />
    <path
       d="M980.17167,663.69032l-1.53059,-4.82224"
       fill="none"
       stroke="none"
       stroke-width="1"
       id="path4037" />
    <path
       d=""
       fill="none"
       stroke="#00bb31"
       stroke-width="6"
       opacity="0"
       id="path4039" />
    <path
       d="M798.33889,563.47002l-3.28977,0.59905"
       fill="none"
       stroke="none"
       stroke-width="1"
       id="path4041" />
    <path
       d=""
       fill="none"
       stroke="#00bb31"
       stroke-width="6"
       opacity="0"
       id="path4043" />
    <path
       d=""
       fill="none"
       stroke="none"
       stroke-width="1"
       id="path4045" />
    <path
       d=""
       fill="none"
       stroke="none"
       stroke-width="1"
       id="path4047" />
    <path
       d=""
       fill="none"
       stroke="none"
       stroke-width="1"
       id="path4049" />
    <path
       d=""
       fill="none"
       stroke="none"
       stroke-width="1"
       id="path4051" />
    <path
       d=""
       fill="none"
       stroke="none"
       stroke-width="1"
       id="path4053" />
    <path
       d="M700.38573,573.11439l29.68215,-1.58862"
       fill="none"
       stroke="none"
       stroke-width="1"
       id="path4055" />
    <path
       d=""
       fill="none"
       stroke="#00bb31"
       stroke-width="6"
       opacity="0"
       id="path4057" />
    <path
       d="M754.39996,637.9889l14.15246,11.36641"
       fill="none"
       stroke="none"
       stroke-width="1"
       id="path4059" />
    <path
       d=""
       fill="none"
       stroke="#00bb31"
       stroke-width="6"
       opacity="0"
       id="path4061" />
    <path
       d="M704.07983,770.19858c-18,0.00826 -36.25126,-2.73337 -54.75378,-8.22488c-18.50252,-5.49151 -34.75684,-14.90072 -48.76296,-28.22763c-14.67294,-13.65994 -25.84675,-29.23814 -33.52145,-46.73462c-7.6747,-17.49648 -11.51656,-36.07805 -11.52558,-55.74472l-0.00023,-0.5c-0.00887,-19.33333 3.81601,-37.75176 11.47465,-55.25527c5.38299,-12.30263 12.41312,-23.74147 21.09038,-34.31654l2.05713,0.11567l7.20277,11.86179l14.13132,7.19624l15.91852,1.94216l12.22933,1.68238l11.90312,7.02555l10.90688,-2.99366l11.96602,9.8143l8.22337,0.85718l15.70036,-6.04014l2.06604,0.45799l0.35811,0.57823l7.3693,9.94494l11.60097,7.28168l1.44496,13.67351l4.07868,8.47125l9.81359,11.95129l12.54202,3.14472l3.94218,7.52908l3.09915,2.48827l-5.30289,1.44494l-5.65826,13.56565l-8.1432,11.88485l-0.93226,11.93319l-3.4172,10.2524l-7.58294,11.05654l-5.66554,11.63723l7.78083,-8.24229l8.64058,-9.35907l4.47485,-8.55493l1.98991,-10.23573l9.20085,-10.18739l6.51672,-11.51618l0.09048,2.14722l7.05562,11.32393l23.20194,14.56336l1.44496,13.67351l7.71941,12.49185l-3.80952,-13.33611l0.50998,-14.09564l-19.29206,-15.40763l-5.10068,-11.74606l0.12765,-1.37678l1.27742,-0.15335l-1.09958,-1.76477l0.08415,-0.90756l7.0479,2.96486l11.54416,-1.65297l13.68017,3.58511l9.60537,2.95583l7.90809,4.4116l11.30264,1.50007l13.05089,7.65991l-11.49985,-11.34696l-10.52713,-3.34359l-7.13257,-6.25512l-8.82985,-4.79936l-12.90465,-5.42863l-10.76864,-0.19055l-12.90465,-5.42863l-2.21741,-1.78033l-2.86746,-5.33683l-10.58707,-3.56685l-7.85865,-12.37343l-2.12373,-8.89338l0.50998,-14.09564l-9.64603,-7.70381l-3.45952,-6.62408l8.25732,-2.3716l10.06401,-0.32519l14.08309,3.54045l9.04548,-6.23775l12.97223,-5.98198l10.5591,3.91938l-0.06536,0.0119l-9.95698,1.46826l-7.93233,11.53595l11.09017,-3.11625l10.10392,-3.28153l12.72672,5.26955l11.74587,-0.97848l12.39617,7.24205l14.61551,-3.44443l-12.34913,0.14844l-11.26298,-8.89004l-10.61268,-0.66951l-11.59353,-6.91754l-5.6156,1.02258l9.19555,-13.37305l13.43855,-3.72931l6.20465,-8.85213l10.65086,-8.57542l7.20875,-11.81135l0.59275,-13.57156c14.09167,6.12696 26.7046,14.31331 37.83877,24.55903c14.33976,13.99342 25.34694,29.65504 33.02156,46.98485c7.67462,17.32981 11.51644,35.82805 11.52547,55.49472l0.00023,0.5c0.00902,19.66666 -3.81578,38.25175 -11.47442,55.75527c-7.65864,17.50352 -18.65148,33.0919 -32.97854,46.76514c-12.66116,12.00581 -26.99036,21.01239 -42.98761,27.01973c-15.99725,6.00734 -32.49579,9.18158 -49.49564,9.52271z"
       fill="#d0d0ce"
       stroke="none"
       stroke-width="1"
       id="path4063"
       style="fill:#000000" />
    <path
       d="M777.32027,621.19067l-22.68558,16.98669l-5.30289,1.44494l-5.65826,13.56565l-8.1432,11.88485l-0.93226,11.93319l-3.4172,10.2524l-7.58294,11.05654l-5.66554,11.63723l7.78083,-8.24229l8.64058,-9.35907l4.47485,-8.55493l1.98991,-10.23573l9.20085,-10.18739l6.71591,-11.86818l13.02603,-1.5637l-1.09958,-1.76477"
       fill="#00bb31"
       stroke="none"
       stroke-width="1"
       id="path4065" />
    <path
       d="M794.32027,621.19067c0,-3.31371 2.68629,-6 6,-6c3.31371,0 6,2.68629 6,6c0,3.31371 -2.68629,6 -6,6c-3.31371,0 -6,-2.68629 -6,-6z"
       fill="#00bb31"
       stroke="none"
       stroke-width="1"
       id="path4067" />
    <path
       d="M817.32027,598.19067c0,-3.31371 2.68629,-6 6,-6c3.31371,0 6,2.68629 6,6c0,3.31371 -2.68629,6 -6,6c-3.31371,0 -6,-2.68629 -6,-6z"
       fill="#00bb31"
       stroke="none"
       stroke-width="1"
       id="path4069" />
    <path
       d="M761.64822,643.17673l15.67205,-21.98606v-16l23,-23h46l-23,39h-23"
       fill="none"
       stroke="#00bb31"
       stroke-width="6"
       id="path4071" />
    <path
       d="M777.32027,621.19067l23,-23h23"
       fill="none"
       stroke="#00bb31"
       stroke-width="6"
       id="path4073" />
    <path
       d="M730.06789,571.52576l3.45952,6.62408l9.64603,7.70381l-0.50998,14.09564l2.12373,8.89338l7.85865,12.37343l10.58707,3.56685l2.86746,5.33683l2.21741,1.78033l12.90465,5.42863l10.76864,0.19055l12.90465,5.42863l8.82985,4.79936l7.13257,6.25512l10.52713,3.34359l11.49985,11.34696l-13.05089,-7.65991l-11.30264,-1.50007l-7.90809,-4.4116l-9.60537,-2.95583l-13.68017,-3.58511l-11.54416,1.65297l-7.0479,-2.96486l-0.38965,4.20245l5.10068,11.74606l19.29206,15.40763l-0.50998,14.09564l3.80952,13.33611l-7.71941,-12.49185l-1.44496,-13.67351l-23.20194,-14.56336l-7.05562,-11.32393l-0.59863,-14.20616l-0.86958,-1.19979l-3.62285,-2.90874l-3.94218,-7.52908l-12.54202,-3.14472l-9.81359,-11.95129l-4.07868,-8.47125l-1.44496,-13.67351l-11.60097,-7.28168l-7.3693,-9.94494l-0.35811,-0.57823l13.23774,-30.75144"
       fill="#00bb31"
       stroke="none"
       stroke-width="1"
       id="path4075" />
    <path
       d="M683.62347,542.36295c0,-3.31371 2.68629,-6 6,-6c3.31371,0 6,2.68629 6,6c0,3.31371 -2.68629,6 -6,6c-3.31371,0 -6,-2.68629 -6,-6z"
       fill="#00bb31"
       stroke="none"
       stroke-width="1"
       id="path4077" />
    <path
       d="M654.12347,518.36295c0,-3.31371 2.68629,-6 6,-6c3.31371,0 6,2.68629 6,6c0,3.31371 -2.68629,6 -6,6c-3.31371,0 -6,-2.68629 -6,-6z"
       fill="#00bb31"
       stroke="none"
       stroke-width="1"
       id="path4079" />
    <path
       d="M715.22681,572.32008l-1.60334,-29.95712v-15l-24,-24h-59l29.5,39h29.5"
       fill="none"
       stroke="#00bb31"
       stroke-width="6"
       id="path4081" />
    <path
       d="M713.62347,542.36295l-24,-24h-29.5"
       fill="none"
       stroke="#00bb31"
       stroke-width="6"
       id="path4083" />
    <path
       d="M792.21526,539.174l6.12363,24.29602l-3.28977,0.59905"
       fill="#00bb31"
       stroke="none"
       stroke-width="1"
       id="path4085" />
    <path
       d="M757.21526,539.174c0,-3.31371 2.68629,-6 6,-6c3.31371,0 6,2.68629 6,6c0,3.31371 -2.68629,6 -6,6c-3.31371,0 -6,-2.68629 -6,-6z"
       fill="#00bb31"
       stroke="none"
       stroke-width="1"
       id="path4087" />
    <path
       d="M726.71526,510.174c0,-3.31371 2.68629,-6 6,-6c3.31371,0 6,2.68629 6,6c0,3.31371 -2.68629,6 -6,6c-3.31371,0 -6,-2.68629 -6,-6z"
       fill="#00bb31"
       stroke="none"
       stroke-width="1"
       id="path4089" />
    <path
       d="M796.694,563.76955l-4.47875,-24.59554v-18l-29,-29h-61l30.5,47h30.5"
       fill="none"
       stroke="#00bb31"
       stroke-width="6"
       id="path4091" />
    <path
       d="M792.21526,539.174l-29,-29h-30.5"
       fill="none"
       stroke="#00bb31"
       stroke-width="6"
       id="path4093" />
    <path
       d="M954.62473,669.14493l25.54694,-5.45462l3.78633,-3.38069l7.24016,-12.32034l-8.45027,8.50778l-4.1068,2.37101"
       fill="#00bb31"
       stroke="none"
       stroke-width="1"
       id="path4095" />
    <path
       d="M911.62473,669.14493c0,-3.31371 2.68629,-6 6,-6c3.31371,0 6,2.68629 6,6c0,3.31371 -2.68629,6 -6,6c-3.31371,0 -6,-2.68629 -6,-6z"
       fill="#00bb31"
       stroke="none"
       stroke-width="1"
       id="path4097" />
    <path
       d="M877.62473,632.14493c0,-3.31371 2.68629,-6 6,-6c3.31371,0 6,2.68629 6,6c0,3.31371 -2.68629,6 -6,6c-3.31371,0 -6,-2.68629 -6,-6z"
       fill="#00bb31"
       stroke="none"
       stroke-width="1"
       id="path4099" />
    <path
       d="M979.40638,661.2792l-24.78165,7.86574v-16l-37,-37h-68l34,53h34"
       fill="none"
       stroke="#00bb31"
       stroke-width="6"
       id="path4101" />
    <path
       d="M954.62473,669.14493l-37,-37h-34"
       fill="none"
       stroke="#00bb31"
       stroke-width="6"
       id="path4103" />
    <path
       d="M1038.34515,509.12266l20.18208,19.63048l-4.66313,2.70461l-8.03519,-0.67531l-1.215,5.78789M1107.2441,526.98748l8.469,-8.33697l2.54069,-8.15751l14.47011,-3.95169l7.18817,-10.87797l-4.02993,13.33266l-12.89099,5.17903l-0.96157,9.38485l-9.20508,11.84342l-7.54915,0.96264zM1104.9289,529.26659l2.81178,-4.64467l-0.49658,2.36556z"
       fill="#00bb31"
       stroke="none"
       stroke-width="1"
       id="path4105" />
    <path
       d="M1007.34515,509.12266c0,-3.31371 2.68629,-6 6,-6c3.31371,0 6,2.68629 6,6c0,3.31371 -2.68629,6 -6,6c-3.31371,0 -6,-2.68629 -6,-6z"
       fill="#00bb31"
       stroke="none"
       stroke-width="1"
       id="path4107" />
    <path
       d="M981.84515,484.12266c0,-3.31371 2.68629,-6 6,-6c3.31371,0 6,2.68629 6,6c0,3.31371 -2.68629,6 -6,6c-3.31371,0 -6,-2.68629 -6,-6z"
       fill="#00bb31"
       stroke="none"
       stroke-width="1"
       id="path4109" />
    <path
       d="M1051.57058,532.66174l-13.22543,-23.53908v-19l-25,-25h-51l25.5,44h25.5"
       fill="none"
       stroke="#00bb31"
       stroke-width="6"
       id="path4111" />
    <path
       d="M1038.34515,509.12266l-25,-25h-25.5"
       fill="none"
       stroke="#00bb31"
       stroke-width="6"
       id="path4113" />
    <path
       d="M1180.47037,643.13442l-34.39876,-12.18187l5.3918,-3.02711l0.38494,-7.42843"
       fill="#00bb31"
       stroke="none"
       stroke-width="1"
       id="path4115" />
    <path
       d="M1207.47037,643.13442c0,-3.31371 2.68629,-6 6,-6c3.31371,0 6,2.68629 6,6c0,3.31371 -2.68629,6 -6,6c-3.31371,0 -6,-2.68629 -6,-6z"
       fill="#00bb31"
       stroke="none"
       stroke-width="1"
       id="path4117" />
    <path
       d="M1239.97037,610.13442c0,-3.31371 2.68629,-6 6,-6c3.31371,0 6,2.68629 6,6c0,3.31371 -2.68629,6 -6,6c-3.31371,0 -6,-2.68629 -6,-6z"
       fill="#00bb31"
       stroke="none"
       stroke-width="1"
       id="path4119" />
    <path
       d="M1148.95998,625.72479l31.51039,17.40964v-15l33,-33h65l-32.5,48h-32.5"
       fill="none"
       stroke="#00bb31"
       stroke-width="6"
       id="path4121" />
    <path
       d="M1180.47037,643.13442l33,-33h32.5"
       fill="none"
       stroke="#00bb31"
       stroke-width="6"
       id="path4123" />
    <path
       d="M1012.13471,555.82326l2.58007,-1.32371l3.90817,-12.91719l6.89524,-4.91236l11.42216,-8.85025l6.79707,-3.50156l8.50499,-1.17015l-3.26212,-12.42601l10.167,-4.96307l-6.38449,6.26405l3.71049,9.75506l3.97439,-8.49906l9.71685,-4.71602l7.18975,-9.14476l11.33069,-5.03416l-10.91122,9.01211l-6.98002,11.13374l-9.50711,6.70499l-4.15841,11.33008l-0.06345,0.01928l-0.40495,1.92905l-11.66398,1.73872l-6.58734,5.49053l-11.21242,10.83923l-6.68551,6.90133l-3.69844,14.90617l-1.19923,0.86029l-40.12862,-2.8397"
       fill="#00bb31"
       stroke="none"
       stroke-width="1"
       id="path4125" />
    <path
       d="M943.48427,572.40985c0,-3.31371 2.68629,-6 6,-6c3.31371,0 6,2.68629 6,6c0,3.31371 -2.68629,6 -6,6c-3.31371,0 -6,-2.68629 -6,-6z"
       fill="#00bb31"
       stroke="none"
       stroke-width="1"
       id="path4127" />
    <path
       d="M908.98427,546.40985c0,-3.31371 2.68629,-6 6,-6c3.31371,0 6,2.68629 6,6c0,3.31371 -2.68629,6 -6,6c-3.31371,0 -6,-2.68629 -6,-6z"
       fill="#00bb31"
       stroke="none"
       stroke-width="1"
       id="path4129" />
    <path
       d="M1013.8738,565.53641l-38.38953,6.87345v-19l-26,-26h-69l34.5,45h34.5"
       fill="none"
       stroke="#00bb31"
       stroke-width="6"
       id="path4131" />
    <path
       d="M975.48427,572.40985l-26,-26h-34.5"
       fill="none"
       stroke="#00bb31"
       stroke-width="6"
       id="path4133" />
    <path
       d="M1231.23749,534.93145l-29.48695,17.22943l2.29235,-1.73269l2.0904,-9.2541l-8.46516,-12.52206M1163.2701,631.93915l2.0055,3.92879l-4.23392,14.63127l0.35948,11.03951l3.70544,13.64807l-4.23392,14.63127l6.80559,14.27179l-10.77527,-13.78019l2.24908,-14.38547l-5.69028,-13.40227l-2.34432,-10.79371l2.24908,-14.38547l-7.30641,-10.17921l7.86097,-9.05381zM1159.95402,625.44293l4.04806,7.57901l-0.73198,-1.08278z"
       fill="#00bb31"
       stroke="none"
       stroke-width="1"
       id="path4135" />
    <path
       d="M1256.23749,534.93145c0,-3.31371 2.68629,-6 6,-6c3.31371,0 6,2.68629 6,6c0,3.31371 -2.68629,6 -6,6c-3.31371,0 -6,-2.68629 -6,-6z"
       fill="#00bb31"
       stroke="none"
       stroke-width="1"
       id="path4137" />
    <path
       d="M1280.73749,503.93145c0,-3.31371 2.68629,-6 6,-6c3.31371,0 6,2.68629 6,6c0,3.31371 -2.68629,6 -6,6c-3.31371,0 -6,-2.68629 -6,-6z"
       fill="#00bb31"
       stroke="none"
       stroke-width="1"
       id="path4139" />
    <path
       d="M1199.70934,540.40645l31.52815,-5.475v-18l31,-31h49l-24.5,49h-24.5"
       fill="none"
       stroke="#00bb31"
       stroke-width="6"
       id="path4141" />
    <path
       d="M1231.23749,534.93145l31,-31h24.5"
       fill="none"
       stroke="#00bb31"
       stroke-width="6"
       id="path4143" />
    <path
       d="M1131.86144,501.41723l20.48593,-26.99785l4.40387,-1.69776l-11.32448,0.76188l-12.96967,-8.15437l-7.85767,-0.81492l-3.35391,4.71824"
       fill="#00bb31"
       stroke="none"
       stroke-width="1"
       id="path4145" />
    <path
       d="M1087.86144,501.41723c0,-3.31371 2.68629,-6 6,-6c3.31371,0 6,2.68629 6,6c0,3.31371 -2.68629,6 -6,6c-3.31371,0 -6,-2.68629 -6,-6z"
       fill="#00bb31"
       stroke="none"
       stroke-width="1"
       id="path4147" />
    <path
       d="M1057.86144,463.41723c0,-3.31371 2.68629,-6 6,-6c3.31371,0 6,2.68629 6,6c0,3.31371 -2.68629,6 -6,6c-3.31371,0 -6,-2.68629 -6,-6z"
       fill="#00bb31"
       stroke="none"
       stroke-width="1"
       id="path4149" />
    <path
       d="M1136.79645,471.82592l-4.93501,29.59131v-19l-38,-38h-60l30,57h30"
       fill="none"
       stroke="#00bb31"
       stroke-width="6"
       id="path4151" />
    <path
       d="M1131.86144,501.41723l-38,-38h-30"
       fill="none"
       stroke="#00bb31"
       stroke-width="6"
       id="path4153" />
    <path
       d="M1134.13767,494.88703l10.60192,-24.43582l5.12844,-5.07594l-7.32811,4.13966l-14.35125,-1.39917l-1.80512,1.28826"
       fill="#00bb31"
       stroke="none"
       stroke-width="1"
       id="path4155" />
    <path
       d="M1106.13767,494.88703c0,-3.31371 2.68629,-6 6,-6c3.31371,0 6,2.68629 6,6c0,3.31371 -2.68629,6 -6,6c-3.31371,0 -6,-2.68629 -6,-6z"
       fill="#00bb31"
       stroke="none"
       stroke-width="1"
       id="path4157" />
    <path
       d="M1071.63767,472.88703c0,-3.31371 2.68629,-6 6,-6c3.31371,0 6,2.68629 6,6c0,3.31371 -2.68629,6 -6,6c-3.31371,0 -6,-2.68629 -6,-6z"
       fill="#00bb31"
       stroke="none"
       stroke-width="1"
       id="path4159" />
    <path
       d="M1135.56157,469.92761l-1.42391,24.95942v-15l-22,-22h-69l34.5,37h34.5"
       fill="none"
       stroke="#00bb31"
       stroke-width="6"
       id="path4161" />
    <path
       d="M1134.13767,494.88703l-22,-22h-34.5"
       fill="none"
       stroke="#00bb31"
       stroke-width="6"
       id="path4163" />
    <path
       d="M1109.70899,496.88363l9.13107,-27.73149l1.6886,-8.14862l2.53657,-12.24063l1.8143,-12.93224l-4.70339,10.1658l-3.98111,10.85741l-3.98111,10.85741l0.00734,0.08455"
       fill="#00bb31"
       stroke="none"
       stroke-width="1"
       id="path4165" />
    <path
       d="M1074.70899,496.88363c0,-3.31371 2.68629,-6 6,-6c3.31371,0 6,2.68629 6,6c0,3.31371 -2.68629,6 -6,6c-3.31371,0 -6,-2.68629 -6,-6z"
       fill="#00bb31"
       stroke="none"
       stroke-width="1"
       id="path4167" />
    <path
       d="M1047.70899,467.88363c0,-3.31371 2.68629,-6 6,-6c3.31371,0 6,2.68629 6,6c0,3.31371 -2.68629,6 -6,6c-3.31371,0 -6,-2.68629 -6,-6z"
       fill="#00bb31"
       stroke="none"
       stroke-width="1"
       id="path4169" />
    <path
       d="M1115.53065,468.47398l-5.82166,28.40965v-16l-29,-29h-54l27,45h27"
       fill="none"
       stroke="#00bb31"
       stroke-width="6"
       id="path4171" />
    <path
       d="M1109.70899,496.88363l-29,-29h-27"
       fill="none"
       stroke="#00bb31"
       stroke-width="6"
       id="path4173" />
    <path
       d="M1227.19005,424.64074l-2.42632,7.7468l6.02791,8.60339l-5.97155,8.48992l-0.8955,5.58253l0.92589,0.02105M1223.92459,455.06338l-1.11406,6.94504l0.99031,12.55594l-4.96214,7.49942l4.97122,14.59367l2.97131,14.57476l-11.01861,13.44242l1.99972,11.56544l0.45126,6.2367l11.28617,6.08796l-1.28895,11.24004l12.16169,5.66508l6.1969,14.23371l8.72974,4.55978l4.16996,13.28952l0.89912,10.77922l5.43637,8.45256l-8.56862,-5.96479l-2.46524,-9.53533l-5.73608,-12.04564l-10.29586,-3.3159l-7.76303,-12.98982l-13.13415,-4.23l-2.08922,3.1575l5.0185,9.59389l-9.0187,13.46133l1.03759,7.55616l0.9714,14.55585l-1.96228,7.52779l-2.00956,12.52757l-4.85832,8.04644l1.31162,-9.89602l0.23621,-13.45236l0.18893,-8.45258l-2.74474,-15.48064l-2.81094,-8.48095l7.24535,-14.38612l-6.79184,-10.51868l3.1888,-8.42421l-0.64436,-2.66543l-2.11098,-0.8442l-7.3022,-10.80175l3.55864,-15.65939l-3.77307,-12.49023l9.24526,-14.36721l-4.74465,-15.49955l-6.74456,-15.51846l3.1888,-8.42421l-1.10237,-5.37718z"
       fill="#00bb31"
       stroke="none"
       stroke-width="1"
       id="path4175" />
    <path
       d="M1252.85048,455.08443c0,-3.31371 2.68629,-6 6,-6c3.31371,0 6,2.68629 6,6c0,3.31371 -2.68629,6 -6,6c-3.31371,0 -6,-2.68629 -6,-6z"
       fill="#00bb31"
       stroke="none"
       stroke-width="1"
       id="path4177" />
    <path
       d="M1285.85048,421.08443c0,-3.31371 2.68629,-6 6,-6c3.31371,0 6,2.68629 6,6c0,3.31371 -2.68629,6 -6,6c-3.31371,0 -6,-2.68629 -6,-6z"
       fill="#00bb31"
       stroke="none"
       stroke-width="1"
       id="path4179" />
    <path
       d="M1210.75748,439.51563l14.09299,15.5688v-20l34,-34h66l-33,54h-33"
       fill="none"
       stroke="#00bb31"
       stroke-width="6"
       id="path4181" />
    <path
       d="M1224.85048,455.08443l34,-34h33"
       fill="none"
       stroke="#00bb31"
       stroke-width="6"
       id="path4183" />
    <path
       d="M754.63469,638.17736l14.02706,9.99873"
       fill="none"
       stroke="none"
       stroke-width="1"
       id="path4185" />
    <path
       d=""
       fill="none"
       stroke="#00bb31"
       stroke-width="6"
       opacity="0"
       id="path4187" />
    <path
       d="M274.57684,719.11971c0.17067,-3.39637 -0.23093,-6.73251 -1.20478,-10.00842c-0.97386,-3.27591 -2.5695,-6.26116 -4.78694,-8.95574c-2.52671,-3.05035 -5.48232,-5.4624 -8.86683,-7.23615c-3.38451,-1.77375 -7.03865,-2.79781 -10.9624,-3.07218l-0.09976,-0.00698c-3.92375,-0.27438 -7.66822,0.23232 -11.2334,1.5201c-3.56518,1.28778 -6.84435,3.26385 -9.83749,5.92821c-2.50437,2.3644 -4.50344,5.1484 -5.99722,8.352c-1.49378,3.2036 -2.35228,6.40151 -2.5755,9.59371l-1.21376,17.35761c-0.21252,3.99491 0.10664,7.79309 0.95749,11.39455c0.85085,3.60146 2.47545,6.88946 4.87379,9.86401c2.59321,3.055 5.58207,5.46938 8.96659,7.24312c3.38451,1.77375 7.0054,2.79548 10.86264,3.06521l0.09976,0.00698c3.92375,0.27438 7.68484,-0.23116 11.28328,-1.51661c3.59843,-1.28545 6.8633,-3.29594 9.79459,-6.03146c2.85549,-2.60716 4.96094,-5.71787 6.31636,-9.33213c1.35542,-3.61425 2.15869,-7.217 2.40981,-10.80823zM208.76711,777.17047l7.29653,-104.3452l1092.6319,76.40427l-7.29653,104.3452zM286.86283,692.51192l-5.18988,74.21877l17.05835,1.19284l1.82762,-26.13618l5.58636,0.39064c3.1922,0.22322 6.12583,-0.1564 8.80088,-1.13886c2.67505,-0.98246 5.00141,-2.47381 6.9791,-4.47406c1.97768,-2.00025 3.56761,-4.42859 4.7698,-7.28502c1.20218,-2.85643 1.92884,-6.08026 2.17996,-9.67149c0.25577,-3.65773 -0.01165,-7.0012 -0.80227,-10.0304c-0.79062,-3.0292 -2.02712,-5.65518 -3.7095,-7.87795c-1.68238,-2.22277 -3.78087,-3.99013 -6.29548,-5.30207c-2.51461,-1.31194 -5.36802,-2.07952 -8.56022,-2.30274zM385.14806,716.22572l1.17191,-16.75908l-45.48892,-3.1809l-5.18988,74.21877l45.48892,3.1809l1.17191,-16.75908l-28.72984,-2.00899l0.83708,-11.97077l21.14836,1.47884l1.17191,-16.75908l-21.14836,-1.47884l0.83708,-11.97077zM434.20304,702.81496l-2.54611,36.41109l-17.30541,-37.79924l-17.05835,-1.19284l-5.18988,74.21877l17.75664,1.24167l2.55309,-36.51084l17.39819,37.90597l16.95859,1.18586l5.18988,-74.21877zM502.8329,782.1957l5.18988,-74.21877l-16.75908,-1.17191l-5.18988,74.21877zM555.70634,711.31129l-2.54611,36.41109l-17.30541,-37.79924l-17.05835,-1.19284l-5.18988,74.21877l17.75664,1.24167l2.55309,-36.51084l17.39819,37.90597l16.95859,1.18586l5.18988,-74.21877zM627.25685,733.15562l1.17191,-16.75908l-45.48892,-3.1809l-5.18988,74.21877l16.75908,1.17191l2.00899,-28.72984l21.14836,1.47884l1.17191,-16.75908l-21.14836,-1.47884l0.83708,-11.97077zM687.28504,720.51217l-50.47674,-3.52968l-1.17191,16.75908l16.85883,1.17888l-4.01797,57.45969l16.75908,1.17191l4.01797,-57.45969l16.85883,1.17888zM739.55485,798.74891l-12.99145,-30.68098c0.86456,0.06046 2.09302,-0.30474 3.6854,-1.09559c1.59238,-0.79085 3.19836,-2.01514 4.81794,-3.67286c1.61958,-1.65773 3.06872,-3.74506 4.3474,-6.26199c1.27869,-2.51693 2.03429,-5.43801 2.26681,-8.76322c0.22322,-3.1922 0.0702,-6.26035 -0.45905,-9.20444c-0.52925,-2.94409 -1.56624,-5.55612 -3.11096,-7.8361c-1.54472,-2.27997 -3.68495,-4.1672 -6.4207,-5.66168c-2.73575,-1.49448 -6.23176,-2.39053 -10.48803,-2.68816l-22.6447,-1.58347l-5.18988,74.21877l16.75908,1.17191l1.68811,-24.14105l0.19951,0.01395l8.28753,24.83861zM789.20418,782.57287l5.31645,20.01962l19.05347,1.33235l-16.55701,-75.73946l-22.34543,-1.56255l-26.93678,72.69807l19.05347,1.33235l7.95115,-19.09186zM876.52801,789.58134c0.26507,-3.79074 -0.17093,-7.11258 -1.30803,-9.96552c-1.13709,-2.85294 -2.72623,-5.45346 -4.7674,-7.80156c-2.04118,-2.34811 -4.41453,-4.48553 -7.12005,-6.41229c-2.70552,-1.92675 -5.52742,-3.86165 -8.46571,-5.80468c-2.08303,-1.74957 -3.60624,-3.14255 -4.56962,-4.17894c-0.96338,-1.03639 -1.4009,-2.18638 -1.31254,-3.44996c0.11626,-1.66261 0.75212,-2.8712 1.90757,-3.62577c1.15545,-0.75457 2.39822,-1.08535 3.7283,-0.99234c1.26358,0.08836 2.35893,0.43227 3.28603,1.03174c0.92711,0.59947 1.71307,1.30601 2.35789,2.11964c0.64481,0.81363 1.13534,1.6833 1.47159,2.60901c0.33624,0.92571 0.57855,1.76131 0.7269,2.50681l15.06878,-4.76045c-0.19301,-2.01838 -0.75063,-4.07896 -1.67286,-6.18175c-0.92223,-2.10279 -2.27523,-4.0185 -4.05899,-5.74714c-1.78376,-1.72864 -4.01956,-3.20486 -6.70741,-4.42867c-2.68785,-1.22381 -5.86064,-1.9636 -9.51837,-2.21937c-3.06385,-0.14742 -6.05584,0.11117 -8.97598,0.77576c-2.92014,0.66459 -5.53566,1.75145 -7.84656,3.26059c-2.3109,1.50914 -4.21743,3.44754 -5.71958,5.81519c-1.50215,2.36765 -2.36716,5.18083 -2.59503,8.43954c-0.24647,3.52473 0.16407,6.49393 1.23164,8.90761c1.06756,2.41368 2.61693,4.62715 4.64811,6.64041c2.03118,2.01326 4.43394,3.96896 7.20829,5.86712c2.77435,1.89815 5.77833,4.09639 9.01193,6.5947c1.45519,1.17103 2.56472,2.26776 3.3286,3.29021c0.76387,1.02244 1.13953,2.10127 1.12698,3.2365c-0.06371,1.86677 -0.67445,3.19407 -1.83223,3.98189c-1.15778,0.78782 -2.3066,1.20871 -3.44647,1.26266c-1.34404,0.1065 -2.57123,-0.26333 -3.68157,-1.10952c-1.11034,-0.84618 -2.03083,-1.77933 -2.76145,-2.79945c-0.73062,-1.02012 -1.28184,-1.97757 -1.65366,-2.87235c-0.37182,-0.89478 -0.4889,-1.37078 -0.35124,-1.42798l-16.42839,5.56758c0.47903,2.70668 1.39347,5.15977 2.74332,7.35929c1.34986,2.19952 3.0377,4.10523 5.06353,5.71714c2.02583,1.61191 4.3243,2.90873 6.89541,3.89048c2.57111,0.98174 5.35302,1.57725 8.34571,1.78652c3.85725,0.26973 7.34686,0.06264 10.46884,-0.62124c3.12198,-0.68389 5.8183,-1.73169 8.08898,-3.1434c2.27067,-1.41171 4.09442,-3.12199 5.47124,-5.13084c1.37682,-2.00885 2.21544,-4.2057 2.51586,-6.59056zM938.07264,738.04895l-50.47674,-3.52968l-1.17191,16.75908l16.85883,1.17888l-4.01797,57.45969l16.75908,1.17191l4.01797,-57.45969l16.85883,1.17888zM990.34245,816.28569l-12.99145,-30.68098c0.86456,0.06046 2.09302,-0.30474 3.6854,-1.09559c1.59238,-0.79085 3.19836,-2.01514 4.81794,-3.67286c1.61958,-1.65773 3.06872,-3.74506 4.3474,-6.26199c1.27869,-2.51693 2.03429,-5.43801 2.26681,-8.76322c0.22322,-3.1922 0.0702,-6.26035 -0.45905,-9.20444c-0.52925,-2.94409 -1.56624,-5.55612 -3.11096,-7.8361c-1.54472,-2.27997 -3.68495,-4.1672 -6.4207,-5.66168c-2.73575,-1.49448 -6.23176,-2.39053 -10.48803,-2.68816l-22.6447,-1.58347l-5.18988,74.21877l16.75908,1.17191l1.68811,-24.14105l0.19951,0.01395l8.28753,24.83861zM1061.07927,746.55017l-17.25786,-1.20679l-3.03441,43.39404c-0.12556,1.79562 -0.42703,3.47869 -0.90442,5.04921c-0.47738,1.57053 -1.14033,2.92759 -1.98884,4.07118c-0.84851,1.1436 -1.89571,2.02269 -3.14162,2.63728c-1.24591,0.61459 -2.70016,0.86375 -4.36277,0.74749c-1.66261,-0.11626 -3.06803,-0.56539 -4.21628,-1.3474c-1.14825,-0.782 -2.07954,-1.79944 -2.79389,-3.05233c-0.71434,-1.25288 -1.1986,-2.69016 -1.45276,-4.31184c-0.25416,-1.62168 -0.31846,-3.33033 -0.1929,-5.12594l3.03441,-43.39404l-17.25786,-1.20679l-3.12509,44.69087c-0.27438,3.92375 -0.05497,7.71496 0.65822,11.37362c0.71319,3.65866 2.03735,6.94236 3.9725,9.8511c1.93514,2.90874 4.54277,5.27975 7.82288,7.11302c3.28011,1.83327 7.34989,2.8864 12.20935,3.15938l0.09976,0.00698c4.38463,0.37343 8.28955,-0.03851 11.71474,-1.23583c3.4252,-1.19732 6.34359,-3.03154 8.75517,-5.50267c2.41159,-2.47113 4.32718,-5.49487 5.74678,-9.07122c1.4196,-3.57635 2.28286,-7.55917 2.58979,-11.94845zM1121.32516,750.86322l-50.47674,-3.52968l-1.17191,16.75908l16.85883,1.17888l-4.01797,57.45969l16.75908,1.17191l4.01797,-57.45969l16.85883,1.17888zM1186.27355,755.30461l-17.25786,-1.20679l-3.03441,43.39404c-0.12556,1.79562 -0.42703,3.47869 -0.90442,5.04921c-0.47738,1.57053 -1.14033,2.92759 -1.98884,4.07118c-0.84851,1.1436 -1.89571,2.02269 -3.14162,2.63728c-1.24591,0.61459 -2.70016,0.86375 -4.36277,0.74749c-1.66261,-0.11626 -3.06803,-0.56539 -4.21628,-1.3474c-1.14825,-0.782 -2.07954,-1.79944 -2.79389,-3.05233c-0.71434,-1.25288 -1.1986,-2.69016 -1.45276,-4.31184c-0.25416,-1.62168 -0.31846,-3.33033 -0.1929,-5.12594l3.03441,-43.39404l-17.25786,-1.20679l-3.12509,44.69087c-0.27438,3.92375 -0.05497,7.71496 0.65822,11.37362c0.71319,3.65866 2.03735,6.94236 3.9725,9.8511c1.93514,2.90874 4.54277,5.27975 7.82288,7.11302c3.28011,1.83327 7.34989,2.8864 12.20935,3.15938l0.09976,0.00698c4.38463,0.37343 8.28955,-0.03851 11.71474,-1.23583c3.4252,-1.19732 6.34359,-3.03154 8.75517,-5.50267c2.41159,-2.47113 4.32718,-5.49487 5.74678,-9.07122c1.4196,-3.57635 2.28286,-7.55917 2.58979,-11.94845zM1238.63614,833.64808l-12.99145,-30.68098c0.86456,0.06046 2.09302,-0.30474 3.6854,-1.09559c1.59238,-0.79085 3.19836,-2.01514 4.81794,-3.67286c1.61958,-1.65773 3.06872,-3.74506 4.3474,-6.26199c1.27869,-2.51693 2.03429,-5.43801 2.26681,-8.76322c0.22322,-3.1922 0.0702,-6.26035 -0.45905,-9.20444c-0.52925,-2.94409 -1.56624,-5.55612 -3.11096,-7.8361c-1.54472,-2.27997 -3.68495,-4.1672 -6.4207,-5.66168c-2.73575,-1.49448 -6.23176,-2.39053 -10.48803,-2.68816l-22.6447,-1.58347l-5.18988,74.21877l16.75908,1.17191l1.68811,-24.14105l0.19951,0.01395l8.28753,24.83861zM1300.01405,780.19938l1.17191,-16.75908l-45.48892,-3.1809l-5.18988,74.21877l45.48892,3.1809l1.17191,-16.75908l-28.72984,-2.00899l0.83708,-11.97077l21.14836,1.47884l1.17191,-16.75908l-21.14836,-1.47884l0.83708,-11.97077z"
       fill="#00bb31"
       stroke="none"
       stroke-width="1"
       id="path4189" />
    <path
       d="M1101.04423,858.01941c-0.30368,-3.38707 -1.16566,-6.63485 -2.58596,-9.74335c-1.4203,-3.1085 -3.41588,-5.84262 -5.98675,-8.20237c-2.92664,-2.66902 -6.18918,-4.64625 -9.78762,-5.9317c-3.59843,-1.28545 -7.35953,-1.79099 -11.28328,-1.51661l-0.09976,0.00698c-3.92375,0.27438 -7.56126,1.29727 -10.91252,3.06869c-3.35126,1.77142 -6.3235,4.18463 -8.91671,7.23963c-2.15093,2.68993 -3.74309,5.72505 -4.77648,9.10537c-1.03338,3.38032 -1.43847,6.66658 -1.21525,9.85879l1.21376,17.35761c0.34553,3.98561 1.19019,7.70241 2.53399,11.1504c1.34379,3.44799 3.41018,6.4779 6.19917,9.08971c2.99315,2.66437 6.28894,4.63927 9.88737,5.92472c3.59843,1.28545 7.32627,1.79331 11.18352,1.52359l0.09976,-0.00698c3.92375,-0.27438 7.57789,-1.29844 10.9624,-3.07218c3.38451,-1.77375 6.3378,-4.21905 8.85986,-7.3359c2.46485,-2.9792 4.11689,-6.35265 4.95611,-10.12037c0.83922,-3.76772 1.13327,-7.44719 0.88215,-11.03842zM1043.95406,924.66416l-7.29653,-104.3452l265.75106,-18.58312l7.29653,104.3452zM1160.88466,900.94973l-17.13498,-28.57433c0.86456,-0.06046 2.03024,-0.59307 3.49706,-1.59783c1.46682,-1.00477 2.88678,-2.44065 4.25989,-4.30765c1.37311,-1.867 2.51764,-4.1357 3.43359,-6.80609c0.91595,-2.6704 1.25767,-5.6682 1.02515,-8.99342c-0.22322,-3.1922 -0.80175,-6.2092 -1.73559,-9.05098c-0.93384,-2.84178 -2.32426,-5.28407 -4.17126,-7.32688c-1.847,-2.0428 -4.22905,-3.6138 -7.14617,-4.71299c-2.91711,-1.09919 -6.50381,-1.49997 -10.76008,-1.20234l-22.6447,1.58347l5.18988,74.21877l16.75908,-1.17191l-1.68811,-24.14105l0.19951,-0.01395l11.66375,23.44349zM1197.56096,859.18959c1.19708,-0.08371 2.43043,-0.60434 3.70006,-1.56191c1.26963,-0.95756 2.39962,-2.23951 3.38999,-3.84584c0.99036,-1.60633 1.76028,-3.49798 2.30976,-5.67494c0.54948,-2.17697 0.73354,-4.56228 0.55217,-7.15595c-0.17207,-2.46066 -0.76478,-4.72483 -1.77815,-6.79251c-1.01337,-2.06768 -2.44041,-3.83912 -4.28114,-5.31431c-1.84072,-1.47519 -4.15697,-2.58298 -6.94875,-3.32338c-2.79178,-0.74039 -6.01654,-0.9827 -9.67427,-0.72693l-17.25786,1.20679l5.18988,74.21877l24.24081,-1.69508c3.25871,-0.22787 6.08003,-0.9765 8.46395,-2.24589c2.38393,-1.26939 4.3243,-2.90873 5.82111,-4.91804c1.49682,-2.00931 2.57484,-4.27336 3.23408,-6.79214c0.65924,-2.51879 0.89352,-5.14152 0.70285,-7.8682c-0.13021,-1.86212 -0.57132,-3.86957 -1.32332,-6.02236c-0.752,-2.15279 -1.84153,-4.1149 -3.26857,-5.88633c-1.42705,-1.77144 -3.2144,-3.20024 -5.36207,-4.2864c-2.14767,-1.08617 -4.71784,-1.52461 -7.71054,-1.31534zM1243.38321,895.18087l-5.18988,-74.21877l-16.75908,1.17191l5.18988,74.21877zM1297.84766,816.79067l-50.47674,3.52968l1.17191,16.75908l16.85883,-1.17888l4.01797,57.45969l16.75908,-1.17191l-4.01797,-57.45969l16.85883,-1.17888z"
       fill="#00bb31"
       stroke="none"
       stroke-width="1"
       id="path4191" />
  </g>
  <path
     style="fill:#000000;stroke-width:1.07502794"
     d="m 645.94458,702.55649 c -39.51838,-2.83968 -72.45643,-5.39514 -73.19565,-5.67881 -2.11465,-0.81146 -10.02119,-20.96435 -13.23385,-33.73162 -2.66568,-10.59352 -2.91884,-13.37115 -2.91884,-32.02512 0,-18.64698 0.2538,-21.43406 2.91467,-32.00782 3.3416,-13.27885 8.84036,-27.18018 14.7618,-37.31908 4.86286,-8.32637 13.6359,-20.43794 14.80425,-20.43794 0.45435,0 2.42401,2.67154 4.37702,5.93675 3.019,5.04744 4.65008,6.49027 10.88861,9.63195 6.11138,3.07764 9.64727,3.99012 21.15713,5.45986 12.0862,1.54334 14.56949,2.21737 19.79982,5.37417 5.94849,3.59025 6.01023,3.60164 11.57234,2.13438 l 5.59196,-1.47513 5.78724,4.71425 c 7.93739,6.46576 11.7106,6.93305 22.46106,2.78172 l 8.39187,-3.24056 4.43675,5.73415 c 2.44022,3.15378 6.96506,7.26646 10.0552,9.13928 5.59373,3.39015 5.62172,3.4344 6.3586,10.05173 0.40708,3.65563 1.5907,8.58164 2.63026,10.9467 2.27005,5.16449 11.35313,16.37316 13.85311,17.09497 0.98108,0.28326 3.80336,1.03642 6.27174,1.67368 3.71764,0.95979 4.9602,2.00364 7.23948,6.08172 2.53268,4.53146 2.59853,4.96307 0.82769,5.42616 -1.11101,0.29053 -2.80716,2.81348 -4.01442,5.97125 -1.14979,3.00748 -4.3884,9.12387 -7.19691,13.59195 -4.17972,6.64956 -5.10638,9.02371 -5.10638,13.08267 0,6.54389 -2.69616,14.3819 -7.08057,20.58393 -1.95544,2.7661 -4.79864,7.48278 -6.31822,10.48152 -1.51957,2.99873 -2.87564,5.39241 -3.0135,5.31928 -0.13786,-0.0731 -32.58388,-2.45633 -72.10226,-5.29599 z"
     id="path4203"
     inkscape:connector-curvature="0" />
  <path
     style="fill:#000000;stroke-width:1.07502794"
     d="m 808.09854,713.82775 c -43.75364,-3.15096 -81.44554,-5.75452 -83.75979,-5.78566 l -4.20773,-0.0566 7.01445,-7.2657 c 7.42338,-7.68929 11.8938,-15.24129 13.16948,-22.24758 0.51091,-2.80597 2.61901,-6.45835 6.20417,-10.74898 2.98668,-3.57438 6.18035,-8.07167 7.09704,-9.99401 0.91669,-1.92232 1.93994,-3.48141 2.27388,-3.46464 0.33394,0.0168 2.14959,2.58092 4.03477,5.69809 2.84944,4.71158 5.22582,6.78684 14.08795,12.30277 5.86319,3.64933 11.1552,7.25317 11.76003,8.00851 0.60483,0.75534 1.31291,4.07417 1.57351,7.37516 0.35754,4.52893 1.44507,7.55456 4.43162,12.32919 4.27404,6.83295 4.88474,6.23984 2.27099,-2.20557 -0.99695,-3.22129 -1.53075,-8.15513 -1.33215,-12.31288 l 0.33139,-6.93774 -9.67525,-7.87343 c -8.03426,-6.53805 -10.11269,-8.88053 -12.25437,-13.81125 -2.93671,-6.76107 -2.13524,-9.24706 2.32591,-7.21442 1.61486,0.73578 4.54938,0.81061 8.33301,0.2125 5.01148,-0.7922 7.41792,-0.46738 16.95649,2.2888 6.11388,1.76661 13.06463,4.20607 15.4461,5.421 2.38147,1.21494 6.98159,2.64055 10.22248,3.16801 3.2941,0.53613 8.27951,2.42776 11.30553,4.28968 2.97715,1.83186 5.59023,3.15343 5.80684,2.93681 0.21661,-0.21662 -2.13394,-2.84925 -5.22346,-5.85028 -3.79871,-3.68994 -7.39451,-6.03017 -11.10679,-7.22857 -3.01922,-0.97466 -6.64744,-3.03759 -8.06271,-4.58426 -1.41527,-1.54668 -7.5088,-5.1591 -13.54119,-8.0276 -8.65014,-4.11328 -12.12197,-5.21546 -16.4287,-5.21546 -5.90552,0 -12.91688,-2.36015 -12.91688,-4.34805 0,-2.28381 4.63264,-7.95375 15.99082,-19.57132 l 11.29853,-11.55655 8.12464,0.0342 c 5.4339,0.0229 8.81575,0.55691 10.21142,1.61254 3.07413,2.32516 5.53974,1.9345 8.0668,-1.27814 2.43915,-3.10087 2.13908,-6.3957 -0.79234,-8.70006 -2.32144,-1.82485 -6.12051,-1.69308 -7.74869,0.26876 -1.01031,1.21735 -3.73754,1.61254 -11.12822,1.61254 h -9.78992 l -8.89143,8.84525 c -8.62609,8.58128 -8.89144,8.7491 -8.89144,5.62373 0,-2.64481 1.87984,-5.0943 10.50076,-13.68288 l 10.50075,-10.46135 h 19.06252 c 10.48438,0 19.06251,0.22162 19.06251,0.49249 0,0.27087 -4.06885,7.40637 -9.04189,15.85666 l -9.04189,15.36418 -7.29761,0.32275 c -5.3498,0.23661 -8.21772,-0.17277 -10.74491,-1.53374 -3.21325,-1.73045 -3.63112,-1.73606 -6.15456,-0.0827 -3.65078,2.39208 -4.52434,5.62498 -2.39717,8.87145 1.98388,3.0278 6.38545,3.47731 9.67633,0.98821 1.46397,-1.10725 4.88167,-1.57832 11.45142,-1.57832 h 9.36464 L 838.6317,602.054 c 7.15301,-12.14361 13.00548,-22.30263 13.00548,-22.57559 0,-0.27296 -3.0599,-0.4963 -6.79978,-0.4963 -6.41936,0 -7.14831,-0.27064 -13.02968,-4.83762 -5.28098,-4.10077 -6.96989,-4.83763 -11.08805,-4.83763 -3.58723,0 -6.2954,-0.89294 -10.35217,-3.41334 -3.02172,-1.87734 -6.58251,-3.33404 -7.91285,-3.23712 -1.33035,0.0969 -2.41882,-0.0677 -2.41882,-0.3658 0,-0.29811 1.74656,-3.17252 3.88124,-6.38758 3.5963,-5.41641 4.32635,-5.9447 9.94401,-7.19576 4.14072,-0.92214 6.74439,-2.20917 8.21283,-4.05969 1.18253,-1.49023 5.40224,-5.86396 9.37713,-9.7194 8.43225,-8.17885 13.73597,-16.03663 13.73597,-20.35069 0,-1.67936 0.30488,-4.57774 0.67749,-6.44085 0.56903,-2.84508 1.04238,-3.27515 2.95633,-2.68593 3.53278,1.08757 16.6902,8.84338 23.17195,13.65899 4.64939,3.45426 5.46057,4.47491 3.97163,4.9972 -1.52544,0.53509 1.61605,5.21773 17.00476,25.34697 10.38172,13.57985 20.05354,25.3072 21.49291,26.06078 4.21721,2.20791 10.45584,21.86944 12.01571,37.86837 l 0.68129,6.98768 -4.21165,-4.03135 -4.21166,-4.03136 h -37.31189 c -20.52154,0 -37.3119,0.36976 -37.3119,0.82168 0,0.45193 8.3847,13.87634 18.63267,29.83202 l 18.63265,29.01035 15.44892,0.2996 c 12.33677,0.23926 15.83097,0.64536 17.34542,2.01593 1.05927,0.95862 2.86131,1.46403 4.08193,1.14483 2.83165,-0.7405 2.78819,-0.38039 -1.08917,9.02336 -4.15279,10.07179 -8.4303,17.72393 -15.39669,27.54351 -5.32518,7.50618 -5.66628,7.77258 -9.81698,7.66697 -2.36506,-0.0602 -40.09855,-2.68748 -83.85219,-5.83845 z"
     id="path4205"
     inkscape:connector-curvature="0" />
  <path
     style="fill:#000000;stroke-width:1.07502794"
     d="m 764.69665,626.55207 c -0.57482,-1.03471 -3.55592,-2.84882 -6.62466,-4.03135 -4.85718,-1.8717 -6.10127,-3.01324 -9.60954,-8.81738 -4.38927,-7.26171 -5.35992,-11.17194 -5.41668,-21.82092 -0.0368,-6.91254 -0.0843,-7.02237 -4.41445,-10.21277 -3.63941,-2.68148 -7.39728,-7.51603 -7.39728,-9.5167 0,-0.26715 1.52348,-1.01682 3.38551,-1.66593 4.86319,-1.69531 14.31084,-1.45393 21.44543,0.54794 l 6.159,1.72813 4.77559,-3.28569 c 2.62657,-1.80713 7.62696,-4.55223 11.11197,-6.10022 5.73277,-2.54641 6.72376,-2.68777 10.40281,-1.48388 4.24193,1.38808 3.65654,3.06433 -1.08153,3.09696 -1.67179,0.0115 -3.52071,1.69508 -6.15114,5.60105 -2.06848,3.07152 -3.57359,5.77188 -3.34467,6.00079 0.22891,0.22891 5.01034,-0.91075 10.6254,-2.53258 l 10.2092,-2.94879 5.40027,2.32314 c 3.73261,1.60572 7.66259,2.33369 12.72618,2.35732 4.73055,0.0221 8.06518,0.59335 9.41267,1.61254 1.86692,1.41207 0.50599,1.57835 -12.91787,1.57835 h -15.00464 l -12.07653,12.11089 -12.07653,12.11088 v 8.15336 c 0,7.35701 -0.31565,8.58909 -3.23182,12.61475 -3.55787,4.91149 -4.74233,5.39607 -6.30669,2.58011 z"
     id="path4207"
     inkscape:connector-curvature="0" />
  <path
     style="fill:#000000;stroke-width:1.07502794"
     d="m 870.79605,642.9062 -14.7045,-23.07305 h 30.32913 30.32914 l 5.60717,5.6777 c 4.18905,4.24173 5.60718,6.47345 5.60718,8.82405 v 3.14635 l -4.60957,-4.52394 -4.60956,-4.52394 h -14.61806 c -10.53391,0 -15.44064,-0.42676 -17.56227,-1.52747 -1.61931,-0.84012 -3.7306,-1.25628 -4.69175,-0.92481 -4.31839,1.48927 -5.85463,7.32935 -2.74578,10.4382 1.8802,1.8802 7.49114,2.28459 8.52344,0.6143 0.38876,-0.62902 6.56438,-1.07502 14.88549,-1.07502 h 14.22109 l 5.203,5.28243 c 5.73996,5.82759 5.55643,4.49197 2.64602,19.25665 -1.05474,5.35075 -1.25148,5.61501 -3.0014,4.03136 -2.34446,-2.12172 -5.50633,-2.1665 -8.21682,-0.11639 -1.56677,1.18504 -5.30139,1.57689 -14.9871,1.57249 l -12.90034,-0.006 -14.70451,-23.07306 z"
     id="path4209"
     inkscape:connector-curvature="0" />
  <path
     style="fill:#000000;stroke-width:0.38007981"
     d="m 1043.8901,730.58826 c -5.2261,-0.38811 -15.2317,-1.11622 -22.2347,-1.61803 l -12.7326,-0.91238 -3.4208,-1.51339 -3.4207,-1.5134 -3.35379,-6.54666 -3.35382,-6.54667 -0.3538,-8.39579 c -0.23443,-5.56298 -0.51349,-8.62143 -0.82706,-9.06452 -0.26029,-0.3678 -1.42854,-1.91721 -2.59611,-3.44314 -2.0965,-2.73997 -2.13633,-2.84047 -3.20839,-8.09553 -1.04117,-5.10369 -1.19444,-5.50748 -3.75088,-9.88207 -1.46594,-2.50853 -3.05226,-5.62174 -3.52515,-6.91825 l -0.85979,-2.3573 1.89092,-1.65413 c 1.38565,-1.21214 2.84432,-3.27361 5.4589,-7.71482 1.96239,-3.33338 3.4816,-6.14621 3.37603,-6.25073 -0.10558,-0.10452 -2.01201,1.69923 -4.23653,4.00834 -3.90257,4.05099 -7.41291,6.67809 -8.02651,6.00695 -0.6006,-0.65692 -1.52274,-4.27948 -2.53141,-9.94444 l -1.03635,-5.82039 -4.87205,-3.49157 c -2.75558,-1.97479 -4.95075,-3.82178 -5.05321,-4.25172 -0.0996,-0.41809 -0.26774,-3.24018 -0.37357,-6.27132 -0.10583,-3.03114 -0.47737,-9.18843 -0.82566,-13.68287 -0.49959,-6.4469 -0.56111,-9.61353 -0.29148,-15.00262 l 0.34176,-6.8309 -2.74516,-6.02445 -2.74517,-6.02445 1.83558,-3.67812 c 1.00957,-2.02297 2.48208,-5.13192 3.27225,-6.9088 0.79016,-1.77687 1.50415,-3.3073 1.58662,-3.40094 0.0825,-0.0937 1.68393,1.35659 3.55878,3.22275 2.90535,2.89189 3.40882,3.57664 3.40882,4.63621 0,1.57032 -0.17609,1.57089 8.62583,-0.0279 l 6.91548,-1.25609 9.99802,0.72507 c 5.4989,0.39878 10.0153,0.75359 10.0365,0.78846 0.1168,0.19268 47.2816,156.04075 47.2816,156.23414 0,0.27208 0.794,0.31306 -11.2124,-0.57857 z"
     id="path4211"
     inkscape:connector-curvature="0" />
  <path
     style="fill:#000000;stroke-width:0.38007981"
     d="m 978.70642,560.41479 v -8.21398 l -5.27309,-5.32587 -5.27309,-5.32587 -1.33707,-5.43173 -1.33707,-5.43173 4.34939,-3.88023 c 3.63128,-3.23956 4.93349,-4.72741 7.887,-9.0113 1.94568,-2.82209 3.99213,-6.02901 4.54765,-7.1265 0.55553,-1.09748 1.16195,-1.99541 1.34761,-1.99541 0.18566,0 0.78861,0.76966 1.3399,1.71036 0.9018,1.53881 1.14368,1.71046 2.41161,1.71145 l 1.40928,10e-4 7.18828,23.75545 c 3.95356,13.0655 7.11768,23.81593 7.03148,23.88984 -0.086,0.0739 -3.80354,1.78409 -8.26066,3.80039 -6.95437,3.14601 -8.66608,3.76686 -12.06753,4.37701 l -3.96369,0.711 z"
     id="path4213"
     inkscape:connector-curvature="0" />
  <path
     style="fill:#000000;stroke-width:0.38007981"
     d="m 1011.9235,552.47636 c -0.7739,-7.73347 -0.2563,-21.3811 1.2071,-31.83168 0.7493,-5.35035 0.7624,-5.38837 1.9589,-5.68868 2.5533,-0.64083 4.2855,-3.02206 4.2855,-5.89116 0,-1.79212 -0.4221,-2.78128 -1.8317,-4.29243 l -0.9787,-1.04916 1.244,-4.08192 c 0.6842,-2.24505 1.3661,-4.20843 1.5153,-4.36306 0.1492,-0.15462 4.0427,3.52265 8.6523,8.17172 7.7672,7.83372 8.535,8.73196 10.4823,12.26344 1.3596,2.46568 2.3255,4.79659 2.7366,6.60428 0.3495,1.53653 0.5857,2.83739 0.525,2.89078 -0.061,0.0534 -1.1638,0.62502 -2.4511,1.27027 -1.2874,0.64525 -5.406,3.53037 -9.1524,6.41138 -3.7464,2.88102 -7.9097,6.01956 -9.2517,6.97455 l -2.4401,1.73634 -1.9004,6.37966 c -1.6787,5.63527 -2.0202,6.4416 -2.9268,6.91047 -0.5645,0.29196 -1.1057,0.53082 -1.2028,0.53082 -0.097,0 -0.3091,-1.32553 -0.4713,-2.94562 z"
     id="path4215"
     inkscape:connector-curvature="0" />
  <path
     style="fill:#000000;stroke-width:0.38007981"
     d="m 1028.5176,494.82106 -6.6307,-6.63987 1.0771,-2.58221 c 0.5924,-1.42021 1.2428,-3.00979 1.4454,-3.5324 0.3569,-0.92086 0.5317,-0.78504 5.6604,4.39917 l 5.2922,5.34936 -0.1069,4.82291 -0.1068,4.82291 z"
     id="path4217"
     inkscape:connector-curvature="0" />
  <path
     style="fill:#000000;stroke-width:0.38007981"
     d="m 1048.7677,518.98726 c -2.1751,-2.01497 -3.1893,-3.36592 -5.0334,-6.70434 l -2.3094,-4.18087 v -9.69611 -9.69611 l -6.6514,-6.64325 c -3.6583,-3.65379 -6.6514,-6.79387 -6.6514,-6.97796 0,-0.18408 0.9682,-1.95718 2.1515,-3.94022 l 2.1515,-3.60552 0.8887,1.46564 c 0.4888,0.80609 4.8642,8.09327 9.7232,16.19372 l 8.8344,14.72809 3.8037,0.005 3.8036,0.005 1.2445,2.26586 1.2446,2.26586 5.528,0.10513 5.5279,0.10513 -1.4511,1.86172 c -1.2381,1.58839 -2.1682,2.2154 -6.3354,4.27082 l -4.8843,2.40911 -1.325,2.76065 c -0.7287,1.51836 -1.5835,3.35928 -1.8995,4.09093 l -0.5746,1.33028 -1.6522,-4.18088 c -0.9088,-2.29948 -1.6617,-4.44144 -1.6733,-4.75991 -0.012,-0.31847 1.3422,-1.93419 3.0083,-3.5905 1.6661,-1.6563 2.967,-3.07367 2.891,-3.1497 -0.2931,-0.29305 -10.101,4.87966 -10.0996,5.32654 8e-4,0.2598 0.5927,2.68827 1.3154,5.39657 0.7227,2.70832 1.2779,4.95561 1.2338,4.99398 -0.044,0.0384 -1.306,-1.06578 -2.8042,-2.45368 z"
     id="path4219"
     inkscape:connector-curvature="0" />
  <path
     style="fill:#000000;stroke-width:0.38007981"
     d="m 1046.0238,477.89776 -9.568,-15.95129 0.8512,-1.29861 0.8513,-1.2986 6.2205,11.83376 c 3.4214,6.50857 7.503,14.27102 9.0703,17.2499 1.5673,2.97887 2.6906,5.41613 2.4962,5.41613 -0.1944,0 -4.6591,-7.17808 -9.9215,-15.95129 z"
     id="path4221"
     inkscape:connector-curvature="0" />
  <path
     style="fill:#000000"
     d="m 1253.124,745.1806 c -0.5226,-0.0502 -12.153,-0.86708 -25.8454,-1.81532 -26.6411,-1.84499 -50.5412,-3.51483 -68.0343,-4.7534 -5.9577,-0.42183 -27.9268,-1.9599 -48.8202,-3.41794 l -37.9879,-2.65097 -1.2965,-1.23716 c -2.521,-2.40557 -9.2722,-10.75975 -12.1961,-15.09183 -9.5815,-14.19639 -17.6824,-31.99393 -23.0173,-50.56886 -2.6142,-9.10207 -2.3437,-7.91894 -11.9481,-52.26097 -7.7197,-35.64046 -8.1917,-38.04349 -7.5782,-38.5781 0.4213,-0.36707 1.2901,-3.20729 2.4393,-7.97479 l 1.785,-7.40467 8.2122,-8.1306 c 8.4647,-8.38058 14.7269,-14.00113 15.1397,-13.58835 0.1295,0.12952 -0.5305,3.86891 -1.4666,8.30977 -0.9361,4.44086 -1.5693,8.12965 -1.407,8.19731 0.3845,0.16037 7.9265,-1.03869 8.4598,-1.34497 0.2249,-0.12922 2.8422,-2.00234 5.8162,-4.16248 l 5.4072,-3.92752 7.5155,-0.003 c 5.7386,-0.002 8.5419,-0.17925 11.8568,-0.74997 4.0234,-0.69271 4.4966,-0.86714 6.4614,-2.38201 1.166,-0.89901 3.5326,-2.72203 5.2591,-4.05114 l 3.139,-2.41657 5.2789,0.6526 c 4.5027,0.55665 5.8162,0.58495 8.9341,0.1925 l 3.6553,-0.46009 2.5315,-3.27806 c 1.3924,-1.80293 2.5655,-3.3277 2.6069,-3.38838 0.041,-0.0607 1.7138,-0.57589 3.7163,-1.14493 l 3.6411,-1.03462 3.6502,-4.068 c 2.8707,-3.19927 3.9093,-4.10946 4.8638,-4.26214 0.6674,-0.10677 3.5147,-0.4599 6.3273,-0.78472 2.8126,-0.32482 5.3781,-0.8125 5.7012,-1.08375 3.8733,-3.25148 11.4197,-9.82263 11.4197,-9.94371 0,-0.0863 -2.5181,1.30465 -5.5959,3.09108 l -5.5959,3.24806 -6.1135,-0.26775 -6.1134,-0.26775 -2.4486,2.21335 c -1.3468,1.21734 -2.921,2.64102 -3.4984,3.16374 -0.7472,0.67641 -1.6645,1.01807 -3.1821,1.18511 l -2.1323,0.2347 0.2044,-2.25456 c 0.1124,-1.24001 0.3471,-2.39126 0.5215,-2.55835 0.1745,-0.16708 2.9682,-1.36263 6.2084,-2.65677 3.2402,-1.29413 6.0249,-2.47709 6.1882,-2.62879 0.3105,-0.28831 4.074,-12.39473 4.074,-13.10502 0,-0.22422 -1.6216,2.02107 -3.6035,4.98953 -4.105,6.14849 -2.5469,5.17246 -12.6627,7.93251 l -5.434,1.48262 -1.3267,4.21256 c -1.1837,3.75848 -1.5198,4.40164 -3.1179,5.96655 -1.6227,1.5891 -5.8908,4.22511 -6.2536,3.86231 -0.117,-0.11702 3.6371,-19.0515 4.4509,-22.44852 0.1355,-0.56592 0.5956,-0.88746 1.5172,-1.06034 1.574,-0.29529 3.4204,-1.75939 4.2556,-3.37459 0.4398,-0.8504 0.5472,-1.77974 0.397,-3.43545 l -0.2058,-2.26969 5.9726,5.96384 5.9726,5.96384 0.9333,-0.99891 c 0.7925,-0.84825 1.1725,-0.97233 2.5199,-0.82267 1.7846,0.19822 1.7645,0.22939 2.2493,-3.48616 0.1473,-1.12853 0.5631,-2.34717 0.924,-2.70807 0.3609,-0.36091 0.7203,-0.81887 0.7987,-1.01769 0.4844,-1.22862 15.3878,-20.28028 16.0219,-20.48154 1.6181,-0.51357 3.3901,-1.34786 3.2213,-1.51667 -0.096,-0.0965 -2.5925,0.006 -5.5467,0.22864 -6.2205,0.46806 -7.1288,0.26643 -6.49,-1.44081 0.2136,-0.57106 1.5337,-2.21416 2.9335,-3.65133 l 2.5452,-2.61303 -2.6606,1.4445 c -1.4633,0.79447 -2.9979,1.67102 -3.4103,1.94789 -0.4123,0.27687 -1.69,0.5034 -2.8393,0.5034 -1.8543,0 -2.4546,-0.22423 -5.3315,-1.99122 -3.1076,-1.90867 -3.4034,-2.00797 -7.1368,-2.39552 -2.6502,-0.2751 -4.0188,-0.28028 -4.2829,-0.0162 -0.2641,0.26408 -0.927,-0.15462 -2.0746,-1.31026 l -1.6865,-1.69835 1.135,-5.32112 c 1.2103,-5.67384 3.4694,-20.00377 3.1965,-20.27658 -0.2818,-0.28186 -4.3273,8.6509 -6.2566,13.81522 -1.0152,2.71757 -2.0374,5.4389 -2.2715,6.0474 l -0.4258,1.10637 -1.2395,-1.20139 c -1.1315,-1.09669 -1.4536,-1.20139 -3.696,-1.20139 h -2.4565 l -6.6398,-6.64797 -6.6398,-6.64796 -19.1701,-0.0984 -19.1701,-0.0985 3.2104,-2.72556 c 21.6782,-18.40382 46.592,-29.11882 75.9734,-32.67485 7.6225,-0.92256 22.836,-0.92865 30.4063,-0.0122 7.8364,0.94868 17.4497,2.95024 24.7187,5.1466 6.1774,1.86651 14.8546,5.15577 18.2808,6.92964 l 1.7609,0.91164 -1.6828,4.37092 c -0.9255,2.40401 -2.5291,6.87927 -3.5635,9.94502 -1.942,5.75585 -7.8822,18.85697 -9.2343,20.36635 -0.4213,0.47034 -1.1638,0.85518 -1.65,0.85518 -1.0253,0 -1.0095,-0.13991 -0.3377,2.99311 l 0.5196,2.423 -1.4831,3.94849 c -0.8157,2.17166 -1.4831,4.19167 -1.4831,4.48892 0,0.29725 1.4697,3.92944 3.2661,8.07155 2.8647,6.60533 7.7562,20.93548 7.7562,22.72251 0,0.3183 -2.0305,3.73832 -4.5121,7.60003 l -4.5121,7.02131 1.846,5.99802 c 1.0154,3.29891 1.8459,6.34009 1.8458,6.75818 0,2.2638 -0.8113,1.40151 -6.2822,-6.68582 l -5.679,-8.39511 -0.2479,1.45919 c -0.1364,0.80255 -0.3723,3.2366 -0.5242,5.40901 l -0.2763,3.94983 -3.026,3.57842 -3.0259,3.57842 0.566,8.4351 0.5659,8.43511 -3.3723,6.10439 c -3.7744,6.83205 -7.3271,15.72345 -10.014,25.06215 -1.6057,5.58078 -1.7214,5.82572 -5.4777,11.59737 l -3.8375,5.89617 0.6168,5.32903 0.6167,5.32903 -2.3354,6.19798 c -1.2846,3.40889 -2.7652,6.70867 -3.2905,7.33285 l -0.9549,1.13487 v -1.35573 c 0,-1.12244 -0.7684,-2.43199 -4.4659,-7.61053 -2.4563,-3.44015 -4.6004,-6.26391 -4.7647,-6.27503 -0.2731,-0.0185 -0.1585,3.41456 0.3106,9.30586 l 0.1828,2.29461 -5.4936,4.16675 -5.4935,4.16674 -0.02,6.61384 -0.02,6.61383 -4.3725,4.21844 -4.3725,4.21844 -1.1901,5.7012 -1.1901,5.70119 -3.5347,3.61076 -3.5348,3.61076 -1.925,6.72231 c -1.0587,3.69727 -1.924,6.94696 -1.9229,7.22152 0,0.27456 1.4169,-1.98082 3.1462,-5.01195 l 3.1441,-5.51116 4.1352,-2.8506 4.1352,-2.8506 1.9355,-5.02955 1.9356,-5.02956 4.561,-3.0963 c 2.5085,-1.70298 4.7015,-3.22331 4.8733,-3.37853 0.1718,-0.15523 0.5407,-2.79669 0.8197,-5.86992 0.279,-3.07324 0.566,-5.63352 0.6378,-5.68953 0.5401,-0.42138 5.9972,-3.26319 6.2662,-3.26319 0.2825,0 4.6966,8.38328 4.6966,8.91972 0,0.0932 -1.7341,1.5879 -3.8536,3.32151 l -3.8536,3.152 -2.7239,5.7012 c -2.505,5.24303 -2.8267,6.20517 -4.0038,11.97251 l -1.2799,6.27132 2.0149,5.78665 2.015,5.78665 -4.2907,5.73669 c -3.6755,4.91414 -4.5504,6.37289 -6.1014,10.17369 -0.9959,2.44035 -1.7376,4.51007 -1.6483,4.59939 0.089,0.0893 3.6373,-3.41025 7.8845,-7.77681 l 7.7221,-7.93921 -1.4577,-4.93096 -1.4576,-4.93097 1.7683,-5.15296 c 1.5076,-4.39329 2.2509,-5.89128 5.0419,-10.16111 1.8445,-2.82192 3.7414,-5.28538 4.3451,-5.64321 0.5894,-0.34928 1.1272,-0.57563 1.1952,-0.50301 0.068,0.0726 0.4166,1.5776 0.7745,3.34437 0.4046,1.99657 1.7389,5.78203 3.5257,10.00219 l 2.8747,6.78988 -1.0615,6.80794 c -0.5839,3.74437 -0.9793,7.1226 -0.8787,7.50718 0.1958,0.74907 10.265,13.79461 10.4807,13.57886 0.071,-0.0708 -1.3617,-3.2618 -3.1834,-7.09108 l -3.3122,-6.96232 2.1126,-7.29851 2.1125,-7.29851 -1.8219,-6.77338 c -1.6215,-6.0287 -1.8499,-7.37013 -2.0769,-12.2014 l -0.255,-5.42804 1.7777,-6.1644 c 0.9778,-3.39042 1.8485,-6.24344 1.935,-6.34005 0.087,-0.0966 0.4488,0.005 0.8051,0.22552 1.5769,0.97642 17.4857,9.64217 17.7014,9.64217 0.1321,0 0.2401,-0.81349 0.2401,-1.80775 v -1.80776 l 11.4417,-11.40002 11.4416,-11.40002 -0.2456,7.22152 c -0.1351,3.97183 -0.5067,9.16234 -0.8257,11.53446 -0.3191,2.37212 -0.5021,4.39092 -0.4068,4.48621 0.095,0.0953 0.7177,-0.7338 1.3831,-1.84243 0.9778,-1.62894 1.1775,-1.80984 1.0407,-0.94284 -0.463,2.93616 1.9672,6.3899 4.881,6.93653 1.854,0.34781 4.22,-0.40235 5.59,-1.77235 l 1.1059,-1.10595 h 14.3518 14.3517 l 18.3311,-27.08068 18.331,-27.08069 -13.2649,-0.0998 -13.265,-0.0998 -1.1957,-3.89103 -1.1958,-3.89103 -4.3706,-2.27015 -4.3707,-2.27016 -3.0833,-7.09167 -3.0833,-7.09168 -5.9513,-2.78382 c -3.2733,-1.5311 -6.0063,-2.81777 -6.0733,-2.85926 -0.067,-0.0415 0.1468,-2.39266 0.4751,-5.22482 0.3283,-2.83216 0.5951,-5.37136 0.5927,-5.64266 0,-0.2713 -2.3968,-1.77556 -5.3211,-3.3428 -2.9243,-1.56724 -5.3168,-2.94185 -5.3168,-3.0547 0,-0.11285 1.1222,-0.85065 2.4939,-1.63955 1.8536,-1.06611 3.3417,-1.57768 5.7962,-1.99256 6.5418,-1.10579 7.2931,-1.31078 7.2931,-1.98988 0,-0.35202 6.543,-7.18133 14.5399,-15.17624 l 14.5399,-14.5362 h 8.9539 8.954 l 1.0982,1.1463 c 0.604,0.63046 1.7052,1.30972 2.4469,1.50945 l 1.3487,0.36316 1.3771,6.3772 1.3772,6.3772 -2.2356,4.46594 -2.2355,4.46593 h -8.4078 -8.4078 l -1.4486,-1.3088 c -5.1826,-4.68215 -12.8424,1.31878 -9.431,7.38854 2.0159,3.58676 6.9192,4.08059 9.8085,0.98785 l 0.9215,-0.98631 h 10.5908 10.5908 l 1.3155,-2.74486 c 0.7234,-1.50967 1.3155,-2.4076 1.3156,-1.99542 10e-5,0.4122 3.1495,15.28749 6.9987,33.05622 8.8545,40.87359 9.3389,43.74011 10.133,59.95333 0.4485,9.15743 0.013,22.00339 -1.0204,30.09345 -1.8315,14.33892 -5.9719,27.52553 -12.6693,40.34937 -9.0721,17.37081 -22.4332,33.8733 -36.5091,45.09282 -1.5679,1.24967 -3.1927,2.55484 -3.6108,2.90037 -0.4181,0.34554 -1.1878,0.58719 -1.7104,0.53701 z"
     id="path4223"
     inkscape:connector-curvature="0" />
  <path
     style="fill:#000000;stroke-width:0.38007981"
     d="m 1058.9224,528.1728 c 0.011,-0.16863 0.5701,-1.76041 1.2436,-3.53728 l 1.2245,-3.23068 4.7815,-3.40572 4.7814,-3.40572 3.1327,-5.05106 3.1327,-5.05105 h 5.5242 5.5243 l 1.4487,1.3088 c 4.2348,3.82589 10.809,0.56041 10.1449,-5.03914 -0.091,-0.7704 -0.2976,-1.70005 -0.4583,-2.06588 -0.2669,-0.60759 0.024,-0.66514 3.3592,-0.66514 h 3.6514 v 12.92271 c 0,7.1075 -0.1374,12.92272 -0.3054,12.92272 -0.1679,0 -2.0726,-0.59515 -4.2326,-1.32255 l -3.9272,-1.32256 -5.1279,3.08556 -5.128,3.08556 -4.7974,-0.21126 c -2.6386,-0.11618 -7.6802,-0.67836 -11.2035,-1.24928 l -6.4062,-1.03804 -1.5755,0.79387 c -0.8666,0.43663 -2.3025,1.24137 -3.1909,1.78831 -0.8884,0.54694 -1.6067,0.85646 -1.5962,0.68783 z"
     id="path4225"
     inkscape:connector-curvature="0" />
  <path
     style="fill:#000000;stroke-width:0.38007981"
     d="m 1055.165,767.55839 -2.788,-0.6346 -3.3327,-4.03525 c -1.833,-2.21939 -3.8972,-4.53971 -4.5873,-5.15626 l -1.2546,-1.12101 0.3616,-5.37072 c 0.1989,-2.9539 0.4411,-5.45022 0.5382,-5.54737 0.097,-0.0972 3.4244,0.0627 7.3938,0.35515 3.9695,0.29249 7.4957,0.53675 7.8361,0.54279 1.2732,0.0226 1.4146,2.5056 0.697,12.24351 -0.3746,5.0831 -0.6956,9.28475 -0.7134,9.33701 -0.069,0.20327 -1.4777,-0.005 -4.1507,-0.61325 z"
     id="path4227"
     inkscape:connector-curvature="0" />
  <path
     style="fill:#000000;stroke-width:0.1900399"
     d="m 1084.8951,451.79785 -3.0361,-3.04063 h -11.3199 -11.3198 l -0.6447,-0.66514 -0.6447,-0.66514 h 17.2853 17.2852 l 3.7021,3.70578 3.7021,3.70577 h -5.9866 -5.9867 z"
     id="path4229"
     inkscape:connector-curvature="0" />
</svg>
