<?xml version="1.0" encoding="UTF-8" standalone="no"?>
<svg
   xmlns:dc="http://purl.org/dc/elements/1.1/"
   xmlns:cc="http://creativecommons.org/ns#"
   xmlns:rdf="http://www.w3.org/1999/02/22-rdf-syntax-ns#"
   xmlns:svg="http://www.w3.org/2000/svg"
   xmlns="http://www.w3.org/2000/svg"
   xmlns:sodipodi="http://sodipodi.sourceforge.net/DTD/sodipodi-0.dtd"
   xmlns:inkscape="http://www.inkscape.org/namespaces/inkscape"
   version="1.1"
   width="1920"
   height="998"
   viewBox="0,0,1920,998"
   id="svg4643"
   sodipodi:docname="OIO_36c3.svg"
   inkscape:version="0.92.3 (2405546, 2018-03-11)">
  <metadata
     id="metadata4649">
    <rdf:RDF>
      <cc:Work
         rdf:about="">
        <dc:format>image/svg+xml</dc:format>
        <dc:type
           rdf:resource="http://purl.org/dc/dcmitype/StillImage" />
        <dc:title></dc:title>
      </cc:Work>
    </rdf:RDF>
  </metadata>
  <defs
     id="defs4647" />
  <sodipodi:namedview
     pagecolor="#ffffff"
     bordercolor="#666666"
     borderopacity="1"
     objecttolerance="10"
     gridtolerance="10"
     guidetolerance="10"
     inkscape:pageopacity="0"
     inkscape:pageshadow="2"
     inkscape:window-width="1920"
     inkscape:window-height="1151"
     id="namedview4645"
     showgrid="false"
     inkscape:zoom="0.43125"
     inkscape:cx="1226.3138"
     inkscape:cy="42.529914"
     inkscape:window-x="0"
     inkscape:window-y="25"
     inkscape:window-maximized="1"
     inkscape:current-layer="svg4643" />
  <g
     transform="matrix(1.4789242,0,0,1.4372772,-369.28669,-337.4968)"
     id="g4641">
    <g
       stroke-width="none"
       stroke-linejoin="none"
       stroke-miterlimit="none"
       font-weight="none"
       font-size="none"
       text-anchor="none"
       style="font-family:none;mix-blend-mode:normal;fill:none;fill-rule:nonzero;stroke:none;stroke-linecap:butt;stroke-dasharray:none;stroke-dashoffset:0"
       id="g4639">
      <path
         d="m 905.3282,685.38122 c -25.63172,-9.44442 -54.79858,-20.48692 -54.79858,-20.48692 0,0 -2.60501,0.69319 -6.61314,1.84602 -5.53631,1.59186 -15.93161,-0.44771 -21.73769,-3.0513 -13.27918,-5.95459 -21.4793,-14.87422 -14.28075,-29.50852 5.42031,-11.01842 18.5779,-19.32463 36.62202,-12.10619 6.33726,2.53453 11.62876,6.3944 12.83495,9.58954 2.38312,6.31561 2.17853,9.42518 2.17853,9.42518 l 54.07511,22.83288 c -1.78934,8.95801 -5.55339,15.40236 -8.28043,21.45931 z"
         stroke-miterlimit="10"
         id="path4563"
         inkscape:connector-curvature="0"
         style="fill:#000000;stroke-miterlimit:10" />
      <path
         d="m 901.18539,768.56753 -11.66851,-2.0406"
         stroke-miterlimit="10"
         id="path4565"
         inkscape:connector-curvature="0"
         style="fill:none;stroke:none;stroke-width:1;stroke-linejoin:miter;stroke-miterlimit:10" />
      <path
         d=""
         stroke-miterlimit="10"
         id="path4567"
         inkscape:connector-curvature="0"
         style="opacity:0;fill:none;stroke:#00bb31;stroke-width:6;stroke-linejoin:miter;stroke-miterlimit:10" />
      <path
         d="m 758.0025,561.7381 1.0391,-8.26118"
         stroke-miterlimit="10"
         id="path4569"
         inkscape:connector-curvature="0"
         style="fill:none;stroke:none;stroke-width:1;stroke-linejoin:miter;stroke-miterlimit:10" />
      <path
         d=""
         stroke-miterlimit="10"
         id="path4571"
         inkscape:connector-curvature="0"
         style="opacity:0;fill:none;stroke:#00bb31;stroke-width:6;stroke-linejoin:miter;stroke-miterlimit:10" />
      <path
         d="m 803.96482,649.0427 4.99796,5.0849"
         stroke-miterlimit="10"
         id="path4573"
         inkscape:connector-curvature="0"
         style="fill:none;stroke:none;stroke-width:1;stroke-linejoin:miter;stroke-miterlimit:10" />
      <path
         d=""
         stroke-miterlimit="10"
         id="path4575"
         inkscape:connector-curvature="0"
         style="opacity:0;fill:none;stroke:#00bb31;stroke-width:6;stroke-linejoin:miter;stroke-miterlimit:10" />
      <path
         d="m 985.75222,646.78258 8.37613,-9.04696"
         stroke-miterlimit="10"
         id="path4577"
         inkscape:connector-curvature="0"
         style="fill:none;stroke:none;stroke-width:1;stroke-linejoin:miter;stroke-miterlimit:10" />
      <path
         d=""
         stroke-miterlimit="10"
         id="path4579"
         inkscape:connector-curvature="0"
         style="opacity:0;fill:none;stroke:#00bb31;stroke-width:6;stroke-linejoin:miter;stroke-miterlimit:10" />
      <path
         d="m 1109.7732,536.80279 4.2194,-3.26276"
         stroke-miterlimit="10"
         id="path4581"
         inkscape:connector-curvature="0"
         style="fill:none;stroke:none;stroke-width:1;stroke-linejoin:miter;stroke-miterlimit:10" />
      <path
         d=""
         stroke-miterlimit="10"
         id="path4583"
         inkscape:connector-curvature="0"
         style="opacity:0;fill:none;stroke:#00bb31;stroke-width:6;stroke-linejoin:miter;stroke-miterlimit:10" />
      <path
         d="m 1169.8846,577.95407 -1.7449,7.11011"
         stroke-miterlimit="10"
         id="path4585"
         inkscape:connector-curvature="0"
         style="fill:none;stroke:none;stroke-width:1;stroke-linejoin:miter;stroke-miterlimit:10" />
      <path
         d=""
         stroke-miterlimit="10"
         id="path4587"
         inkscape:connector-curvature="0"
         style="opacity:0;fill:none;stroke:#00bb31;stroke-width:6;stroke-linejoin:miter;stroke-miterlimit:10" />
      <path
         d="m 1205.5804,589.82855 7.5005,-16.23539"
         stroke-miterlimit="10"
         id="path4589"
         inkscape:connector-curvature="0"
         style="fill:none;stroke:none;stroke-width:1;stroke-linejoin:miter;stroke-miterlimit:10" />
      <path
         d=""
         stroke-miterlimit="10"
         id="path4591"
         inkscape:connector-curvature="0"
         style="opacity:0;fill:none;stroke:#00bb31;stroke-width:6;stroke-linejoin:miter;stroke-miterlimit:10" />
      <path
         d="m 1203.8298,593.53888 8.7867,-14.82831"
         stroke-miterlimit="10"
         id="path4593"
         inkscape:connector-curvature="0"
         style="fill:none;stroke:none;stroke-width:1;stroke-linejoin:miter;stroke-miterlimit:10" />
      <path
         d=""
         stroke-miterlimit="10"
         id="path4595"
         inkscape:connector-curvature="0"
         style="opacity:0;fill:none;stroke:#00bb31;stroke-width:6;stroke-linejoin:miter;stroke-miterlimit:10" />
      <path
         d="m 1400.5975,600.08832 10.0173,14.85545"
         stroke-miterlimit="10"
         id="path4597"
         inkscape:connector-curvature="0"
         style="fill:none;stroke:none;stroke-width:1;stroke-linejoin:miter;stroke-miterlimit:10" />
      <path
         d=""
         stroke-miterlimit="10"
         id="path4599"
         inkscape:connector-curvature="0"
         style="opacity:0;fill:none;stroke:#00bb31;stroke-width:6;stroke-linejoin:miter;stroke-miterlimit:10" />
      <path
         d="m 1399.3207,598.48482 13.0065,19.47801"
         stroke-miterlimit="10"
         id="path4601"
         inkscape:connector-curvature="0"
         style="fill:none;stroke:none;stroke-width:1;stroke-linejoin:miter;stroke-miterlimit:10" />
      <path
         d=""
         stroke-miterlimit="10"
         id="path4603"
         inkscape:connector-curvature="0"
         style="opacity:0;fill:none;stroke:#00bb31;stroke-width:6;stroke-linejoin:miter;stroke-miterlimit:10" />
      <path
         d="m 1142.1795,454.97085 -3.0985,-15.90154"
         stroke-miterlimit="10"
         id="path4605"
         inkscape:connector-curvature="0"
         style="fill:none;stroke:none;stroke-width:1;stroke-linejoin:miter;stroke-miterlimit:10" />
      <path
         d=""
         stroke-miterlimit="10"
         id="path4607"
         inkscape:connector-curvature="0"
         style="opacity:0;fill:none;stroke:#00bb31;stroke-width:6;stroke-linejoin:miter;stroke-miterlimit:10" />
      <path
         d="m 1142.8275,458.29682 -2.506,-25.29095"
         stroke-miterlimit="10"
         id="path4609"
         inkscape:connector-curvature="0"
         style="fill:none;stroke:none;stroke-width:1;stroke-linejoin:miter;stroke-miterlimit:10" />
      <path
         d=""
         stroke-miterlimit="10"
         id="path4611"
         inkscape:connector-curvature="0"
         style="opacity:0;fill:none;stroke:#00bb31;stroke-width:6;stroke-linejoin:miter;stroke-miterlimit:10" />
      <path
         d="m 1149.5423,492.75785 -6.7148,-34.46103 0.8629,-1.10884 13.4195,-9.02805 6.0681,-12.76378 6.9223,-10.69734 7.6774,-10.04162 9.5845,-3.08729 10.1978,-3.56836 3.3025,-11.53664 2.3648,-11.54557 4.4448,-1.86499 4.7566,-11.25376 1.1802,-11.7109 13.7247,-2.95597 -14.4898,-0.97019 -1.5626,9.74782 -5.1391,9.29068 -3.1953,0.9004 -0.2864,-4.0868 -0.4074,-9.47808 9.757,-8.64884 -3.5631,-16.62241 7.97,-6.03988 -11.8155,4.93907 1.6403,16.07201 -11.6797,8.09843 -1.5155,8.92768 -0.9833,9.90575 -1.3325,0.37548 -0.5729,9.55606 -0.5706,2.7856 -4.9025,5.94183 -9.9671,1.12421 -8.0598,8.07854 -7.3049,8.73425 -6.4505,10.8007 -12.5808,6.43984 78.1539,-186.38767 61.2132,30.73756 -80.3711,202.29048 -37.1836,25.24141 21.6945,20.89658 40.3174,38.71436 c 3.5385,-3.92566 7.0296,-6.73148 8.7379,-7.81312 19.7707,-12.51616 30.9638,-20.01609 60.9694,-20.40488 16.9229,-0.22097 45.7074,8.72204 60.5943,20.7916 9.0419,7.33169 34.7785,29.47856 43.7531,40.06345 0.3683,0.43432 0.742,0.88446 1.1201,1.34917 l -7.5191,5.33093 -2.4289,10.45038 -1.8956,11.76019 -0.9741,12.14845 -1.6523,8.60728 -9.268,8.65409 1.9356,15.5446 -2.5739,8.21902 -4.3702,15.05812 -8.4914,6.81099 -0.4419,12.99507 2.5706,-9.60858 9.5559,-5.11774 5.4345,-13.36487 3.6383,-6.52577 -0.8712,-13.85135 2.8466,-1.91773 2.7462,6.0884 2.9494,9.55518 6.0401,12.78738 -2.218,-13.96711 -1.0384,-10.14504 -1.5851,-8.96343 0.5915,-0.39848 2.7168,-6.91403 2.0384,-10.4552 2.96,-10.06694 3.4932,-8.75713 8.8175,-4.47866 c 0.2309,0.4203 0.4589,0.84095 0.6836,1.2616 4.9889,9.33878 8.5354,18.86357 10.2887,27.87156 6.5025,33.3915 -3.6629,64.27976 -17.7933,83.95867 -7.9956,11.13223 -21.1287,23.31632 -31.5809,28.09899 -21.6157,9.88953 -35.6986,15.40894 -69.0901,8.79569 -13.5158,-2.67659 -23.4986,-9.0461 -38.7081,-19.21104 -5.1283,-3.42799 -36.0347,-32.57827 -41.616,-38.09234 -16.2328,-16.03708 -29.5358,-44.65694 -30.6136,-70.67824 -0.6632,-15.96449 3.3554,-31.90822 9.9323,-46.42884 l 8.2969,-0.50971 13.7624,-7.49689 13.6027,-0.49871 9.6723,-3.58922 15.3967,8.54459 13.6028,-0.49871 14.8078,-9.47355 10.187,-0.38565 -7.7626,-2.79592 -13.5957,7.88276 -12.3905,-1.09207 -4.4481,-3.17832 10.8175,-8.96103 12.708,-3.39229 13.7357,-6.02737 6.1203,-5.96175 -7.7276,2.29888 -14.5394,4.19594 -13.5116,1.56086 -12.0164,7.45698 -6.9647,2.26053 -6.8183,1.61063 -12.3905,-1.09207 -12.5503,5.90611 -8.3916,-1.00079 -0.8161,-0.59154 c 0.7813,-1.05206 1.6152,-2.15357 2.4848,-3.27944 -19.1294,-17.4021 -38.9752,-35.46448 -58.0079,-52.79213 l 12.7912,55.31507 -8.1934,1.6013 -12.2414,7.5306 -14.7996,2.80418 13.424,0.95184 11.5536,-5.65259 8.5119,-0.12522 -67.8179,185.17175 -63.8169,-35.50205 71.4968,-196.56123 1.7715,-1.36986 7.7422,3.11867 13.6953,3.49594 -10.531,-5.94281 -6.6871,-3.93457 29.7809,-23.0286 c -51.9128,-47.27076 -94.6236,-86.20163 -94.6236,-86.20163 l 12.8623,-15.86264 z m 108.726,121.9185 c -1.8353,2.35829 -3.5926,4.84486 -5.2396,7.45575 -8.0895,12.82695 -13.5299,26.9051 -14.0336,49.54275 -0.1364,6.11922 0.3324,12.6811 2.2276,19.48228 2.432,8.73746 6.6655,17.35182 9.1377,20.43534 2.7383,3.41556 25.1835,9.96175 39.813,8.18189 34.1067,-4.15134 46.3909,-17.80651 59.6365,-30.87768 16.824,-16.60484 22.1517,-35.08937 23.689,-58.81447 1.3605,-21.00864 -8.0906,-40.52017 -11.1949,-43.11458 -3.3259,-2.78116 -24.6831,-11.29652 -45.1138,-7.61338 -13.9397,2.51393 -21.3527,4.84436 -33.4237,12.27577 -5.3796,3.30886 -11.3835,7.89951 -17.1584,13.64395 l 32.8553,31.54889 3.8614,3.71384 c 0,0 2.0598,0.14171 4.6822,0.43519 3.0686,0.34266 7.6785,5.38159 9.067,9.40196 1.5037,4.35838 1.2264,7.73363 -0.1109,9.67787 -1.9059,2.76983 -6.0648,3.30292 -9.803,2.5447 -4.9828,-1.01006 -8.6745,-4.59884 -9.9417,-8.53312 -0.8049,-2.49679 -1.241,-5.21307 -1.241,-5.21307 0,0 -1.707,-1.49664 -4.1695,-3.72903 -9.7691,-8.85706 -21.1442,-19.18247 -33.5396,-30.44487 z"
         stroke-miterlimit="10"
         id="path4613"
         inkscape:connector-curvature="0"
         style="fill:#000000;fill-opacity:1;stroke-miterlimit:10" />
      <path
         d="m 669.99498,681.39713 12.08281,3.08527"
         stroke-miterlimit="10"
         id="path4615"
         inkscape:connector-curvature="0"
         style="fill:none;stroke:none;stroke-width:1;stroke-linejoin:miter;stroke-miterlimit:10" />
      <path
         d=""
         stroke-miterlimit="10"
         id="path4617"
         inkscape:connector-curvature="0"
         style="opacity:0;fill:none;stroke:#00bb31;stroke-width:6;stroke-linejoin:miter;stroke-miterlimit:10" />
      <path
         d="m 611.57429,680.61577 13.6025,-1.48227"
         stroke-miterlimit="10"
         id="path4619"
         inkscape:connector-curvature="0"
         style="fill:none;stroke:none;stroke-width:1;stroke-linejoin:miter;stroke-miterlimit:10" />
      <path
         d=""
         stroke-miterlimit="10"
         id="path4621"
         inkscape:connector-curvature="0"
         style="opacity:0;fill:none;stroke:#00bb31;stroke-width:6;stroke-linejoin:miter;stroke-miterlimit:10" />
      <path
         d="m 1034.0618,511.6477 c 4.986,10.35232 23.5264,59.90691 25.9895,68.0502 7.0413,23.27891 12.9444,48.07742 -4.5541,97.17944 -11.2941,31.6938 -32.9261,55.12315 -54.5731,69.40333 -10.59424,6.98929 -32.50694,18.31395 -45.23394,21.41461 -8.92399,2.17208 -30.09282,4.30196 -54.50478,0.87225 l -0.72107,-0.95702 -2.56291,-11.26798 -6.67382,-10.95099 -6.35741,-10.00237 4.07804,-10.32052 -7.33657,-7.04039 3.41763,6.23919 -6.03751,9.91992 4.39794,9.60177 4.71435,10.55039 0.60344,10.86738 0.80938,1.32001 c -9.37209,-1.97266 -18.99771,-4.83328 -28.41417,-8.86547 -20.31942,-8.69985 -50.05802,-26.33175 -68.58195,-66.76271 -4.64867,-10.14454 -22.09186,-54.90113 -27.82985,-71.48657 -6.36809,-18.40714 -8.64771,-37.60952 -6.68841,-57.67409 l 2.28808,0.23634 10.02834,-2.95468 10.18517,-9.27729 10.86538,-5.18837 -10.17175,1.24897 -9.83836,7.30759 -9.68153,0.98498 -2.63624,-0.61872 c 1.28234,-8.34708 3.28477,-16.84146 6.01774,-25.48779 l 8.91752,10.32636 8.93326,-0.29276 14.95293,-1.58239 9.22019,-3.90045 15.34099,2.09016 9.77282,3.88043 7.66844,-10.29536 3.18135,2.14221 c -16.12076,12.16539 -24.06884,25.78351 -32.90073,40.22581 -18.11694,29.62647 -15.11705,64.80575 -13.18679,69.21297 0.72283,1.65014 3.15212,5.04796 7.00551,9.24659 l -0.53814,5.67431 5.59938,15.09348 2.61527,12.4296 0.41875,-9.82293 -4.08237,-13.79014 0.98507,-4.49942 c 10.19805,9.72967 26.10981,21.37195 45.1828,26.36769 35.1159,9.19922 63.94546,4.06338 92.14228,-6.85858 14.1005,-5.46122 27.712,-15.14543 39.46437,-26.85414 l 1.17155,0.53956 10.68435,-9.71309 9.22918,3.2052 10.7688,7.40394 16.4227,-7.05403 10.6205,4.52117 -8.1344,-7.65477 -15.1797,5.48723 -9.5258,-8.97074 -7.9861,-4.772 -9.4413,8.1463 -0.25364,-0.18572 c 8.73124,-10.21868 16.01094,-21.414 21.10454,-32.40686 11.1451,-24.05197 9.5943,-53.73806 7.8269,-58.2746 -0.9739,-2.5012 -6.4082,-8.73739 -14.0475,-15.5508 l 1.6266,-1.72029 -1.0189,-11.03317 0.6407,-9.53453 1.0681,-10.82561 -4.2828,8.4453 -2.248,8.34437 -0.5885,9.84301 -1.4572,1.1899 c -9.68157,-7.75193 -21.41666,-15.21268 -32.00995,-17.90843 -11.73359,-2.98675 -21.42801,-5.18526 -30.47598,-6.31615 l 8.71932,-0.94726 9.87535,-5.06103 7.58169,-5.29247 7.5336,-5.33531 14.46528,-1.849 9.92397,-9.79409 11.68932,1.57093 c 12.7495,14.57514 20.2897,28.6497 24.0069,36.36816 z"
         stroke-miterlimit="10"
         id="path4623"
         inkscape:connector-curvature="0"
         style="fill:#000000;stroke-miterlimit:10" />
      <path
         d="m 1009.0123,531.50337 -6.26,-5.29102"
         stroke-miterlimit="10"
         id="path4625"
         inkscape:connector-curvature="0"
         style="fill:none;stroke:none;stroke-width:1;stroke-linejoin:miter;stroke-miterlimit:10" />
      <path
         d=""
         stroke-miterlimit="10"
         id="path4627"
         inkscape:connector-curvature="0"
         style="opacity:0;fill:none;stroke:#00bb31;stroke-width:6;stroke-linejoin:miter;stroke-miterlimit:10" />
      <path
         d="m 526.90227,727.61791 c 13.38011,-16.071 28.31349,-28.17978 46.61938,-36.35889 l 1.56239,2.27841 18.11635,5.25164 5.28468,11.60367 5.14843,6.60553 7.49849,4.7408 1.23166,9.71342 11.10573,6.18641 -7.26909,-7.31788 0.68665,-10.27915 -5.58017,-5.30653 -3.23011,-7.17127 -3.36636,-12.16941 -16.19803,-5.81738 -1.72247,-3.36404 c 7.66756,-2.44378 15.8947,-4.30899 24.7845,-5.59747 l 4.89096,7.83181 11.93434,9.54689 11.15288,6.48269 0.15875,17.11891 12.53485,6.78294 8.72664,12.18592 -4.73517,-12.44698 -10.53912,-6.91348 1.83698,-17.24944 -9.15714,-6.61322 -9.93861,-9.67742 -3.02875,-8.17615 -0.23413,-0.35474 c 0.0545,-0.004 0.10909,-0.008 0.16367,-0.0123 16.2827,-1.21536 31.06386,-0.48438 44.65452,2.27592 l -0.46716,3.92256 7.86136,12.65943 10.87072,9.3513 3.25985,9.07808 2.47655,12.59751 12.17774,10.6072 -8.39243,-9.31435 -0.5839,-11.95108 -1.3672,-8.43165 -8.97807,-8.70487 -5.96871,-12.01301 1.19407,-4.71585 c 24.53335,7.61545 45.10014,22.6677 63.84253,45.72816 9.3421,11.49528 16.03417,23.44323 20.84097,34.57855 l -10.64697,-5.07451 -12.4461,6.28521 -14.3367,-2.66876 -8.80535,2.77245 -8.83801,2.71694 -10.95066,1.79434 -8.5906,-1.7679 c -17.02324,-7.92124 -32.82309,-10.69387 -59.72184,-9.71867 -17.29162,0.62713 -30.60372,3.15731 -41.51479,6.95921 l -2.37266,-3.01339 -10.45237,7.453 -8.11537,-6.68629 -13.96426,-6.68687 -9.97161,0.8901 -14.7193,-3.07188 -8.59387,-2.45648 -5.32754,-12.56078 c 2.93674,-4.13698 6.10573,-8.24922 9.50897,-12.33694 z"
         stroke-miterlimit="1.41421"
         id="path4629"
         inkscape:connector-curvature="0"
         style="fill:#000000;fill-opacity:1;stroke-miterlimit:1.41420996" />
      <path
         d="m 573.52165,691.25902 13.26814,-5.04578"
         stroke-miterlimit="10"
         id="path4631"
         inkscape:connector-curvature="0"
         style="fill:none;stroke:none;stroke-width:1;stroke-linejoin:miter;stroke-miterlimit:10" />
      <path
         d=""
         stroke-miterlimit="10"
         id="path4633"
         inkscape:connector-curvature="0"
         style="opacity:0;fill:none;stroke:#00bb31;stroke-width:6;stroke-linejoin:miter;stroke-miterlimit:10" />
      <path
         d="m 325.64534,678.79507 c 0.22992,-3.39287 -0.11339,-6.73551 -1.02993,-10.02792 -0.91654,-3.29241 -2.45984,-6.30505 -4.62991,-9.03792 -2.47309,-3.09398 -5.38615,-5.55725 -8.73919,-7.38979 -3.35304,-1.83254 -6.98875,-2.92022 -10.90711,-3.26303 l -0.0996,-0.009 c -3.91837,-0.34281 -7.67111,0.0985 -11.25822,1.32382 -3.58711,1.22536 -6.90027,3.1439 -9.93946,5.75562 -2.54525,2.32033 -4.5926,5.06902 -6.14206,8.24606 -1.54946,3.17705 -2.46364,6.35948 -2.74254,9.5473 l -1.51651,17.33379 c -0.28221,3.99059 -0.0294,7.79376 0.75848,11.40952 0.78786,3.61576 2.35483,6.93161 4.7009,9.94756 2.5395,3.09979 5.48577,5.56596 8.83881,7.39851 3.35304,1.83254 6.95554,2.91732 10.80749,3.25432 l 0.0996,0.009 c 3.91837,0.34281 7.68771,-0.097 11.30803,-1.31946 3.62032,-1.22245 6.91977,-3.17565 9.89836,-5.8596 2.90056,-2.55693 5.05998,-5.63042 6.47827,-9.22047 1.41829,-3.59005 2.28432,-7.17822 2.59808,-10.76452 z m -66.81283,56.89337 9.11649,-104.20197 1156.084,101.14424 -9.1165,104.20197 z m 79.56132,-83.28269 -6.48439,74.11689 17.03493,1.49036 2.28348,-26.1003 5.57869,0.48807 c 3.18782,0.2789 6.12763,-0.0495 8.81942,-0.98509 2.69179,-0.93562 5.04383,-2.38615 7.05612,-4.35158 2.01229,-1.96543 3.64436,-4.36565 4.89621,-7.20067 1.25185,-2.83502 2.03466,-6.04567 2.34842,-9.63197 0.31957,-3.65271 0.11054,-7.00034 -0.62709,-10.04287 -0.73763,-3.04253 -1.92811,-5.6897 -3.57144,-7.94149 -1.64333,-2.25179 -3.71066,-4.0555 -6.20199,-5.41113 -2.49133,-1.35563 -5.33091,-2.17289 -8.51873,-2.45179 z m 97.8564,25.4255 1.46422,-16.73607 -45.42648,-3.9743 -6.48439,74.11689 45.42648,3.9743 1.46422,-16.73607 -28.69041,-2.51009 1.04587,-11.95434 21.11933,1.8477 1.46422,-16.73607 -21.11933,-1.8477 1.04587,-11.95434 z m 49.28156,-12.55259 -3.18118,36.36111 -16.64309,-38.09551 -17.03493,-1.49036 -6.48439,74.11689 17.73227,1.55137 3.1899,-36.46073 16.73399,38.20384 16.93531,1.48165 6.48439,-74.11689 z m 67.23402,80.56641 6.48439,-74.11689 -16.73607,-1.46422 -6.48439,74.11689 z m 54.10249,-69.95084 -3.18118,36.36111 -16.64309,-38.09551 -17.03493,-1.49036 -6.48439,74.11689 17.73227,1.55137 3.1899,-36.46073 16.73399,38.20384 16.93531,1.48165 6.48439,-74.11689 z m 71.15838,23.08972 1.46422,-16.73607 -45.42648,-3.9743 -6.48439,74.11689 16.73607,1.46422 2.51009,-28.69041 21.11933,1.8477 1.46422,-16.73607 -21.11933,-1.8477 1.04587,-11.95434 z m 51.06559,62.28768 -12.45401,-30.90303 c 0.86337,0.0755 2.09802,-0.26817 3.70396,-1.0311 1.60594,-0.76294 3.23304,-1.95901 4.88131,-3.58822 1.64827,-1.62921 3.13361,-3.69093 4.45603,-6.18517 1.32242,-2.49423 2.12889,-5.40168 2.41941,-8.72233 0.2789,-3.18782 0.17945,-6.25817 -0.29834,-9.21105 -0.47779,-2.95288 -1.46903,-5.58261 -2.97373,-7.8892 -1.50469,-2.30659 -3.61166,-4.23088 -6.32091,-5.77287 -2.70925,-1.54199 -6.18909,-2.49892 -10.43952,-2.87079 l -22.61362,-1.97844 -6.48439,74.11689 16.73607,1.46422 2.10917,-24.10791 0.19924,0.0174 7.85278,24.97947 z m 62.30137,-52.36936 1.46422,-16.73607 -45.42648,-3.9743 -6.48439,74.11689 45.42648,3.9743 1.46422,-16.73607 -28.69041,-2.51009 1.04587,-11.95434 21.11933,1.8477 1.46422,-16.73607 -21.11933,-1.8477 1.04587,-11.95434 z m 47.29477,42.28291 4.96625,20.10936 19.02732,1.66467 -15.23266,-76.01688 -22.31476,-1.95229 -28.20143,72.21689 19.02732,1.66467 8.28314,-18.95019 z m 87.18821,8.53142 c 0.33119,-3.78554 -0.0468,-7.11448 -1.13391,-9.98683 -1.08713,-2.87235 -2.63064,-5.5002 -4.63052,-7.88358 -1.99989,-2.38337 -4.33557,-4.5619 -7.00705,-6.53557 -2.67148,-1.97368 -5.45919,-3.95753 -8.36311,-5.95154 -2.05218,-1.78565 -3.55084,-3.20501 -4.49599,-4.25805 -0.94515,-1.05305 -1.36253,-2.2105 -1.25213,-3.47234 0.14526,-1.66032 0.80211,-2.85763 1.97056,-3.59192 1.16844,-0.73429 2.4168,-1.04333 3.74506,-0.92712 1.26185,0.1104 2.35102,0.47337 3.26753,1.08893 0.91651,0.61555 1.69002,1.33571 2.32053,2.16047 0.63052,0.82476 1.10579,1.70286 1.42583,2.63429 0.32004,0.93144 0.54772,1.77114 0.68304,2.51912 l 15.14957,-4.49674 c -0.15775,-2.02144 -0.67933,-4.09144 -1.56472,-6.21 -0.88539,-2.11856 -2.20475,-4.0576 -3.95807,-5.8171 -1.75332,-1.75951 -3.96302,-3.27453 -6.6291,-4.54506 -2.66608,-1.27053 -5.82547,-2.06558 -9.47819,-2.38515 -3.06081,-0.20086 -6.05686,0.005 -8.98815,0.61899 -2.93129,0.61352 -5.56538,1.65457 -7.90227,3.12316 -2.33689,1.46858 -4.27695,3.37341 -5.8202,5.71448 -1.54324,2.34107 -2.45722,5.13873 -2.74193,8.39296 -0.30795,3.51989 0.0507,6.49581 1.07599,8.92775 1.02528,2.43195 2.53578,4.67212 4.53151,6.72052 1.99573,2.0484 4.364,4.04574 7.1048,5.99203 2.7408,1.94628 5.70595,4.19661 8.89546,6.75098 1.43453,1.19625 2.52475,2.31218 3.27067,3.3478 0.74591,1.03562 1.10269,2.12084 1.07032,3.25567 -0.0963,1.86537 -0.73009,3.18181 -1.90144,3.94931 -1.17135,0.7675 -2.32734,1.16827 -3.46799,1.20232 -1.34569,0.083 -2.56624,-0.30817 -3.66165,-1.1736 -1.09541,-0.86543 -1.99946,-1.8145 -2.71217,-2.84722 -0.71271,-1.03271 -1.24713,-1.99964 -1.60328,-2.90077 -0.35615,-0.90114 -0.46491,-1.3791 -0.32627,-1.43389 l -16.52306,5.28001 c 0.43171,2.71462 1.3032,5.18331 2.61447,7.40605 1.31126,2.22274 2.96559,4.15762 4.96298,5.80464 1.99739,1.64702 4.27287,2.98376 6.82646,4.01023 2.55359,1.02647 5.32467,1.67043 8.31326,1.9319 3.85195,0.337 7.34465,0.19085 10.47809,-0.43844 3.13344,-0.6293 5.84764,-1.62988 8.1426,-3.00175 2.29497,-1.37187 4.14828,-3.05006 5.55995,-5.03458 1.41167,-1.98452 2.2885,-4.1664 2.6305,-6.54564 z m 62.43463,-50.45044 -50.40745,-4.41008 -1.46422,16.73607 16.83569,1.47293 -5.02017,57.38081 16.73607,1.46422 5.02017,-57.38081 16.83569,1.47293 z m 50.89645,79.13706 -12.454,-30.90303 c 0.8633,0.0755 2.098,-0.26817 3.7039,-1.0311 1.606,-0.76294 3.2331,-1.95901 4.8813,-3.58822 1.6483,-1.62921 3.1337,-3.69093 4.4561,-6.18517 1.3224,-2.49423 2.1289,-5.40168 2.4194,-8.72233 0.2789,-3.18782 0.1794,-6.25817 -0.2984,-9.21105 -0.4777,-2.95288 -1.469,-5.58261 -2.9737,-7.8892 -1.5047,-2.30659 -3.6116,-4.23088 -6.3209,-5.77287 -2.7092,-1.54199 -6.1891,-2.49892 -10.4395,-2.87079 l -22.61364,-1.97844 -6.48439,74.11689 16.73603,1.46422 2.1092,-24.10791 0.1993,0.0174 7.8527,24.97947 z m 71.9431,-68.49038 -17.2342,-1.50779 -3.7913,43.33447 c -0.1568,1.79315 -0.4876,3.4707 -0.9924,5.03266 -0.5047,1.56195 -1.1912,2.90724 -2.0596,4.03585 -0.8683,1.12861 -1.9307,1.9893 -3.1871,2.58205 -1.2565,0.59275 -2.7149,0.81649 -4.3752,0.67123 -1.6603,-0.14526 -3.0577,-0.61885 -4.1921,-1.42077 -1.1344,-0.80192 -2.0478,-1.83546 -2.7402,-3.10062 -0.6924,-1.26516 -1.1514,-2.71067 -1.3773,-4.33654 -0.2258,-1.62587 -0.2603,-3.33538 -0.1034,-5.12853 l 3.7913,-43.33447 -17.2342,-1.50779 -3.9046,44.62952 c -0.3428,3.91837 -0.1896,7.71282 0.4597,11.38338 0.6492,3.67055 1.9158,6.97686 3.7999,9.91893 1.8841,2.94207 4.45,5.35823 7.6976,7.24847 3.2476,1.89024 7.2984,3.01423 12.1523,3.37198 l 0.1,0.009 c 4.3774,0.4499 8.2889,0.10617 11.7345,-1.03119 3.4456,-1.13736 6.3955,-2.92037 8.8499,-5.34904 2.4543,-2.42866 4.4224,-5.41851 5.9042,-8.96955 1.4818,-3.55103 2.4144,-7.51818 2.7979,-11.90143 z m 32.9996,61.10865 c -3.3638,-0.56198 -5.9662,-2.17828 -7.8071,-4.84889 -1.8409,-2.67061 -2.6016,-5.83227 -2.282,-9.48498 l 1.2637,-14.44482 c 0.3196,-3.65271 1.5982,-6.6025 3.8359,-8.84936 2.2377,-2.24686 5.0617,-3.35495 8.472,-3.32427 1.4005,0.0556 2.7055,0.43746 3.915,1.14558 1.2096,0.70811 2.2689,1.60385 3.1779,2.6872 0.9091,1.08335 1.657,2.28645 2.244,3.60931 0.5869,1.32286 1.0273,2.59943 1.3212,3.82973 l 15.1508,-6.80542 c -0.533,-2.32196 -1.3482,-4.66861 -2.4457,-7.03995 -1.0975,-2.37134 -2.6138,-4.5451 -4.549,-6.52128 -1.9351,-1.97618 -4.3143,-3.65661 -7.1377,-5.04128 -2.8234,-1.38468 -6.2607,-2.25423 -10.3119,-2.60867 l -0.1,-0.009 c -4.5825,-0.40092 -8.6746,0.0943 -12.2762,1.48571 -3.6017,1.39139 -6.6701,3.38153 -9.2054,5.97042 -2.5353,2.58889 -4.5395,5.60904 -6.0126,9.06045 -1.4731,3.45141 -2.4026,7.00057 -2.7886,10.64747 l -1.3422,15.3414 c -0.1377,3.86938 0.136,7.6242 0.8214,11.26445 0.6853,3.64025 1.9895,6.89966 3.9126,9.77822 1.9231,2.87856 4.5251,5.26442 7.8059,7.15756 3.2808,1.89315 7.4449,3.06051 12.4923,3.5021 l 0.1,0.009 c 4.516,0.39511 8.3748,0.0802 11.5763,-0.94465 3.2015,-1.02487 5.8769,-2.34672 8.0262,-3.96556 2.1493,-1.61884 3.8532,-3.3101 5.1117,-5.0738 1.2585,-1.76369 2.2389,-3.21711 2.9412,-4.36025 l -13.7389,-9.33294 c -1.1996,2.2373 -2.8183,4.10331 -4.8564,5.59804 -2.038,1.49473 -4.4762,2.01755 -7.3145,1.56846 z m 92.5122,-50.0274 -50.4075,-4.41008 -1.4642,16.73607 16.8357,1.47293 -5.0202,57.38081 16.7361,1.46422 5.0202,-57.38081 16.8357,1.47293 z m 64.861,5.57422 -17.2342,-1.50779 -3.7913,43.33447 c -0.1568,1.79315 -0.4876,3.4707 -0.9924,5.03266 -0.5047,1.56195 -1.1912,2.90724 -2.0595,4.03585 -0.8684,1.12861 -1.9308,1.9893 -3.1872,2.58205 -1.2565,0.59275 -2.7148,0.81649 -4.3752,0.67123 -1.6603,-0.14526 -3.0577,-0.61885 -4.1921,-1.42077 -1.1344,-0.80192 -2.0478,-1.83546 -2.7402,-3.10062 -0.6923,-1.26516 -1.1514,-2.71067 -1.3773,-4.33654 -0.2258,-1.62587 -0.2603,-3.33538 -0.1034,-5.12853 l 3.7913,-43.33447 -17.2342,-1.50779 -3.9046,44.62952 c -0.3428,3.91837 -0.1896,7.71282 0.4597,11.38338 0.6492,3.67055 1.9158,6.97686 3.7999,9.91893 1.8841,2.94207 4.45,5.35823 7.6976,7.24847 3.2476,1.89024 7.2984,3.01423 12.1523,3.37198 l 0.1,0.009 c 4.3774,0.4499 8.2889,0.10617 11.7345,-1.03119 3.4456,-1.13736 6.3955,-2.92037 8.8499,-5.34904 2.4543,-2.42866 4.4224,-5.41851 5.9042,-8.96955 1.4818,-3.55103 2.4144,-7.51818 2.7979,-11.90143 z m 50.9873,79.24539 -12.454,-30.90303 c 0.8634,0.0755 2.098,-0.26817 3.704,-1.0311 1.6059,-0.76294 3.233,-1.95901 4.8813,-3.58822 1.6482,-1.62921 3.1336,-3.69093 4.456,-6.18517 1.3224,-2.49423 2.1289,-5.40168 2.4194,-8.72233 0.2789,-3.18782 0.1795,-6.25817 -0.2983,-9.21105 -0.4778,-2.95288 -1.4691,-5.58261 -2.9738,-7.8892 -1.5046,-2.30659 -3.6116,-4.23088 -6.3209,-5.77287 -2.7092,-1.54199 -6.1891,-2.49892 -10.4395,-2.87079 l -22.6136,-1.97844 -6.4844,74.11689 16.7361,1.46422 2.1091,-24.10791 0.1993,0.0174 7.8528,24.97947 z m 62.3014,-52.36936 1.4642,-16.73607 -45.4265,-3.9743 -6.4844,74.11689 45.4265,3.9743 1.4642,-16.73607 -28.6904,-2.51009 1.0459,-11.95434 21.1193,1.8477 1.4642,-16.73607 -21.1193,-1.8477 1.0459,-11.95434 z"
         stroke-miterlimit="10"
         id="path4635"
         inkscape:connector-curvature="0"
         style="fill:#fe5000;stroke:none;stroke-width:1;stroke-linejoin:miter;stroke-miterlimit:10" />
      <path
         d="m 1196.8993,850.50741 c 0.052,-3.40026 -0.4657,-6.72035 -1.5533,-9.96028 -1.0876,-3.23993 -2.7865,-6.16767 -5.0966,-8.78322 -2.6316,-2.96031 -5.6696,-5.26774 -9.114,-6.92229 -3.4443,-1.65455 -7.132,-2.55046 -11.0629,-2.68773 l -0.1,-0.003 c -3.931,-0.13727 -7.6555,0.4998 -11.1736,1.91121 -3.518,1.41141 -6.7262,3.50072 -9.6246,6.26792 -2.4203,2.45036 -4.321,5.30243 -5.702,8.55621 -1.3811,3.25378 -2.1275,6.4797 -2.2392,9.67775 l -0.6072,17.3894 c -0.073,3.99989 0.3785,7.78462 1.3546,11.35419 0.976,3.56957 2.7143,6.79887 5.215,9.68791 2.6983,2.96264 5.7696,5.27123 9.2139,6.92578 3.4444,1.65455 7.0987,2.54929 10.963,2.68424 l 0.1,0.003 c 3.9309,0.13727 7.6721,-0.49922 11.2235,-1.90947 3.5514,-1.41025 6.7441,-3.53345 9.5781,-6.36961 2.7628,-2.70523 4.7584,-5.88752 5.9868,-9.54688 1.2285,-3.65936 1.9055,-7.28794 2.0312,-10.88575 z m -63.7437,60.31212 3.6505,-104.53628 266.2377,9.29723 -3.6504,104.53628 z m 118.7689,-11.36195 -14.0543,-30.20889 c 0.8662,0.0303 2.0811,-0.3776 3.6449,-1.22354 1.5639,-0.84594 3.1261,-2.12553 4.6869,-3.83877 1.5607,-1.71324 2.9361,-3.84988 4.1262,-6.4099 1.1901,-2.56003 1.8433,-5.50569 1.9596,-8.83699 0.1117,-3.19805 -0.1483,-6.25899 -0.78,-9.18282 -0.6317,-2.92383 -1.7592,-5.49808 -3.3825,-7.72275 -1.6234,-2.22468 -3.8282,-4.03606 -6.6144,-5.43415 -2.7863,-1.39809 -6.3114,-2.17159 -10.5755,-2.32049 l -22.6862,-0.79222 -2.5965,74.35468 16.7898,0.58631 0.8446,-24.18526 0.1998,0.007 9.1494,24.53425 z m 40.8405,-37.69765 c 1.1993,0.0419 2.4803,-0.34698 3.8431,-1.16659 1.3627,-0.81961 2.6205,-1.97641 3.7734,-3.47042 1.1528,-1.49401 2.1163,-3.29482 2.8903,-5.40242 0.774,-2.1076 1.2064,-4.46061 1.2971,-7.05903 0.086,-2.46516 -0.2667,-4.77889 -1.0584,-6.94117 -0.7917,-2.16228 -2.0257,-4.07318 -3.7022,-5.7327 -1.6764,-1.65952 -3.8642,-3.00336 -6.5633,-4.03151 -2.6991,-1.02816 -5.8808,-1.60622 -9.5453,-1.73418 l -17.2894,-0.60376 -2.5965,74.35468 24.2852,0.84806 c 3.2646,0.11401 6.1488,-0.33561 8.6523,-1.34886 2.5036,-1.01324 4.6047,-2.44079 6.3033,-4.28263 1.6987,-1.84184 3.0074,-3.9808 3.9264,-6.41688 0.9189,-2.43608 1.426,-5.01996 1.5214,-7.75162 0.065,-1.86553 -0.1637,-3.90809 -0.6866,-6.12769 -0.5228,-2.2196 -1.4013,-4.28485 -2.6353,-6.19575 -1.2341,-1.9109 -2.8623,-3.5187 -4.8847,-4.82341 -2.0223,-1.30471 -4.5326,-2.00941 -7.5308,-2.11411 z m 41.8091,40.58384 2.5966,-74.35468 -16.7898,-0.58631 -2.5965,74.35468 z m 62.3601,-72.26769 -50.5692,-1.76591 -0.5863,16.78977 16.8897,0.5898 -2.0102,57.56491 16.7898,0.58631 2.0102,-57.56491 16.8897,0.5898 z"
         stroke-miterlimit="10"
         id="path4637"
         inkscape:connector-curvature="0"
         style="fill:#fe5000;stroke:none;stroke-width:1;stroke-linejoin:miter;stroke-miterlimit:10" />
    </g>
  </g>
</svg>
