<?xml version="1.0" encoding="UTF-8" standalone="no"?>
<svg
   xmlns:dc="http://purl.org/dc/elements/1.1/"
   xmlns:cc="http://creativecommons.org/ns#"
   xmlns:rdf="http://www.w3.org/1999/02/22-rdf-syntax-ns#"
   xmlns:svg="http://www.w3.org/2000/svg"
   xmlns="http://www.w3.org/2000/svg"
   xmlns:sodipodi="http://sodipodi.sourceforge.net/DTD/sodipodi-0.dtd"
   xmlns:inkscape="http://www.inkscape.org/namespaces/inkscape"
   version="1.1"
   width="1920"
   height="998"
   viewBox="0,0,1920,998"
   id="svg222"
   sodipodi:docname="OIO_36c3_v2.svg"
   inkscape:version="0.92.3 (2405546, 2018-03-11)">
  <metadata
     id="metadata228">
    <rdf:RDF>
      <cc:Work
         rdf:about="">
        <dc:format>image/svg+xml</dc:format>
        <dc:type
           rdf:resource="http://purl.org/dc/dcmitype/StillImage" />
      </cc:Work>
    </rdf:RDF>
  </metadata>
  <defs
     id="defs226" />
  <sodipodi:namedview
     pagecolor="#ffffff"
     bordercolor="#666666"
     borderopacity="1"
     objecttolerance="10"
     gridtolerance="10"
     guidetolerance="10"
     inkscape:pageopacity="0"
     inkscape:pageshadow="2"
     inkscape:window-width="1920"
     inkscape:window-height="1151"
     id="namedview224"
     showgrid="false"
     inkscape:zoom="0.6098796"
     inkscape:cx="978.50256"
     inkscape:cy="412.86307"
     inkscape:window-x="0"
     inkscape:window-y="25"
     inkscape:window-maximized="1"
     inkscape:current-layer="g220" />
  <g
     stroke-width="none"
     stroke-linejoin="none"
     stroke-miterlimit="none"
     font-weight="none"
     font-size="none"
     text-anchor="none"
     style="font-family:none;mix-blend-mode:normal;fill:none;fill-rule:nonzero;stroke:none;stroke-linecap:butt;stroke-dasharray:none;stroke-dashoffset:0"
     id="g220"
     transform="matrix(1.4362969,0,0,1.5653837,-226.61502,-489.61986)">
    <path
       d="m 580.45767,542.90922 c 24.30548,-29.80996 55.22519,-42.74344 68.35101,-47.4158 10.82497,-3.85354 62.0741,-17.00385 70.43362,-18.58453 1.34053,-0.25348 2.68543,-0.5029 4.03829,-0.7439 l 0.21678,3.31056 -9.91251,10.29198 -0.96121,13.27335 -13.8823,7.65461 c -7.98712,-1.04354 -13.99657,-1.00332 -15.90132,-0.48709 -6.16359,1.66921 -36.03789,26.185 -44.10829,47.88689 -6.71934,18.06519 -10.90152,31.20532 -12.025,45.12684 l -15.78191,3.79333 -6.9214,11.11991 -11.46575,8.60552 -10.65947,10.62662 -13.29347,-1.30571 -12.29841,8.10926 -7.03244,0.42907 c -4.9117,-38.04 5.38131,-70.0181 31.20376,-101.69092 z"
       id="path79 1 1"
       stroke-miterlimit="1.41421"
       style="fill:#333333;fill-opacity:1;stroke:none;stroke-width:1;stroke-linejoin:round;stroke-miterlimit:1.41420996"
       inkscape:connector-curvature="0" />
    <path
       d="m 847.34867,356.99774 5.61498,8.05926"
       stroke-miterlimit="10"
       id="path194"
       inkscape:connector-curvature="0"
       style="fill:none;stroke:none;stroke-width:1;stroke-linejoin:miter;stroke-miterlimit:10" />
    <path
       d=""
       stroke-miterlimit="10"
       id="path196"
       inkscape:connector-curvature="0"
       style="opacity:0;fill:none;stroke:#00bb31;stroke-width:6;stroke-linejoin:miter;stroke-miterlimit:10" />
    <path
       d="m 971.06305,548.45918 2.79749,-0.70905"
       stroke-miterlimit="10"
       id="path198"
       inkscape:connector-curvature="0"
       style="fill:none;stroke:none;stroke-width:1;stroke-linejoin:miter;stroke-miterlimit:10" />
    <path
       d=""
       stroke-miterlimit="10"
       id="path200"
       inkscape:connector-curvature="0"
       style="opacity:0;fill:none;stroke:#00bb31;stroke-width:6;stroke-linejoin:miter;stroke-miterlimit:10" />
    <path
       d="m 1049.0102,565.14981 -13.8388,-21.13974"
       stroke-miterlimit="10"
       id="path202"
       inkscape:connector-curvature="0"
       style="fill:none;stroke:none;stroke-width:1;stroke-linejoin:miter;stroke-miterlimit:10" />
    <path
       d=""
       stroke-miterlimit="10"
       id="path204"
       inkscape:connector-curvature="0"
       style="opacity:0;fill:none;stroke:#00bb31;stroke-width:6;stroke-linejoin:miter;stroke-miterlimit:10" />
    <path
       d="m 711.66059,476.88049 23.86445,10.43106"
       stroke-miterlimit="10"
       id="path206"
       inkscape:connector-curvature="0"
       style="fill:none;stroke:none;stroke-width:1;stroke-linejoin:miter;stroke-miterlimit:10" />
    <path
       d=""
       stroke-miterlimit="10"
       id="path208"
       inkscape:connector-curvature="0"
       style="opacity:0;fill:none;stroke:#00bb31;stroke-width:6;stroke-linejoin:miter;stroke-miterlimit:10" />
    <path
       d="m 712.11076,477.04475 21.0538,9.09198"
       stroke-miterlimit="10"
       id="path210"
       inkscape:connector-curvature="0"
       style="fill:none;stroke:none;stroke-width:1;stroke-linejoin:miter;stroke-miterlimit:10" />
    <path
       d=""
       stroke-miterlimit="10"
       id="path212"
       inkscape:connector-curvature="0"
       style="opacity:0;fill:none;stroke:#00bb31;stroke-width:6;stroke-linejoin:miter;stroke-miterlimit:10" />
    <path
       d="m 925.9938,542.3296 -52.55252,-21.70405 -114.76631,-171.53393 59.39748,-34.11444 29.27623,42.02056 -1.20221,10.10353 -8.02724,11.02144 -4.03363,14.19179 -6.10956,11.40808 8.39617,-8.12609 5.17693,-12.55079 9.17054,-9.38044 2.24399,-8.60825 89.54086,128.51918 0.55176,44.93826 29.39553,-6.57438 54.52878,-12.28412 c -1.3235,-5.11664 -1.739,-9.57624 -1.6993,-11.59776 0.4615,-23.39498 0.3774,-36.86814 16.5996,-62.11352 9.1478,-14.23902 32.4813,-33.31977 50.7592,-39.08279 11.1023,-3.49978 43.7698,-12.75659 57.5489,-14.40632 7.2988,-0.87427 17.2908,-1.04628 26.5936,-0.17395 10.5417,0.98804 20.443,3.28198 28.9245,6.7868 31.4412,12.98926 51.6028,38.50259 60.2269,61.14221 4.8775,12.8088 7.7994,30.48343 6.0253,41.84017 -3.6701,23.48559 -6.8317,38.27736 -30.7623,62.486 -9.686,9.79894 -20.5046,14.61429 -37.3715,21.69672 -5.6876,2.38768 -47.0483,12.0952 -54.726,13.71047 -22.3298,4.69792 -53.5407,0.013 -75.8423,-13.43725 -9.2768,-5.59342 -17.3591,-12.9767 -24.247,-21.35691 l 0.123,-0.37118 -0.5553,-11.67767 11.4104,-2.57681 8.5924,-12.82667 4.1525,-13.36216 1.9325,-13.6299 9.3808,-5.89351 c 0.1149,0.63259 0.2365,1.26844 0.3651,1.90713 l 44.4363,-10.01059 5.2275,-1.17321 c 0,0 1.2541,-1.64014 2.945,-3.66592 1.9781,-2.37095 8.7237,-3.43783 12.8432,-2.37909 4.465,1.14897 7.1278,3.24157 8.0122,5.42938 1.2596,3.11734 -0.5891,6.88066 -3.283,9.58099 -3.5903,3.59966 -8.6199,4.70029 -12.6008,3.58792 -2.5266,-0.70547 -5.0331,-1.83954 -5.0331,-1.83954 0,0 -2.1898,0.59868 -5.41,1.42186 -12.7758,3.26527 -27.6622,7.06058 -43.8928,11.19026 0.9553,2.83154 2.0605,5.66867 3.3303,8.48246 6.2394,13.82172 14.9834,26.12351 33.5902,39.02722 5.0295,3.48818 10.762,6.71562 17.4807,8.88515 8.63,2.78948 18.1507,4.00825 22.0863,3.64632 4.3593,-0.40081 22.1976,-15.51492 28.7802,-28.70048 15.3451,-30.74142 10.7279,-48.51908 7.1281,-66.77679 -4.5744,-23.19144 -17.0564,-37.8291 -36.0003,-52.19474 -16.7754,-12.72011 -38.2639,-15.5955 -42.14,-14.43657 -4.1542,1.24086 -23.0352,14.36146 -31.2291,33.43593 -0.9559,2.22555 -1.811,4.28893 -2.5741,6.25137 l -1.8628,-3.5752 0.8621,6.23924 c -2.0508,5.67681 -3.3019,10.69297 -3.9949,16.72827 l -4.0074,1.6477 0.9395,13.27761 -13.5137,6.12898 -2.9493,11.90767 -5.1694,11.63993 -9.6092,11.10443 -12.4272,0.85458 -0.4616,9.95544 -0.7431,1.62046 c -1.0839,-2.50151 -2.5675,-6.41402 -4.0584,-10.78036 -18.834,4.77994 -38.20193,9.69172 -57.25246,14.52041 l -3.56892,-1.33054 0.77143,2.03959 c -5.36093,1.35875 -10.69331,2.71006 -15.97809,4.04912 l 20.38384,7.59935 0.64289,1.69974 -1.13301,9.33348 -3.17966,15.31773 1.75722,15.6982 1.99079,-14.30089 5.05366,-14.61908 3.00701,-8.63483 -0.43588,-1.62257 26.49398,9.8773 120.6601,163.5479 -64.8078,33.65909 -124.54639,-168.03664 -3.34895,-45.09487 c -59.82652,15.15305 -112.9932,28.55562 -124.98226,31.57685 1.04555,4.16556 1.81235,8.03821 2.15122,11.27917 1.45672,13.9614 -1.02796,56.25239 -22.65393,92.38108 -11.35156,18.96597 -32.81994,46.06536 -75.37349,58.98796 -10.67723,3.24323 -57.37194,14.51359 -74.57804,17.9707 -33.94577,6.82026 -68.64553,0.50037 -104.35834,-19.84762 -32.82132,-18.70081 -53.80355,-44.66005 -65.01726,-88.40115 -2.3935,-9.33917 -4.0271,-18.28203 -4.89521,-26.89461 l 7.04168,-0.23236 12.52025,-7.76237 13.25178,1.67673 10.9523,-10.32455 11.70179,-8.28171 7.22948,-10.92212 15.88176,-3.35077 c -1.3937,12.79734 -0.20858,26.33083 3.83871,45.07819 10.03409,46.47581 28.94227,60.84752 49.57543,77.65758 26.9231,21.93395 62.18641,23.68883 66.81304,22.36835 5.99963,-1.71269 35.52303,-20.89145 48.01498,-51.19818 11.48564,-27.8624 12.59851,-52.75911 8.62065,-77.23839 -26.66613,6.81905 -71.61661,18.39179 -71.61661,18.39179 0,0 -1.75188,2.04878 -4.39842,5.27213 -3.65587,4.4519 -13.37331,8.67015 -19.63163,9.82024 -14.31343,2.63051 -23.6194,-1.64761 -32.81899,-16.1591 -1.78783,-12.14862 0.68516,-23.60756 23.28888,-30.74672 6.65655,-1.50833 17.52131,-1.37021 20.32735,0.57659 5.54561,3.84869 7.14135,6.52542 7.14135,6.52542 l 72.91979,-14.94865 c -8.98814,-28.18893 -32.56912,-55.81755 -56.6694,-71.22063 -13.28239,-8.48955 -29.14238,-12.798 -40.81269,-14.65583 l 14.09081,-7.26363 1.33181,-13.2413 10.19629,-10.01092 -0.12417,-3.31533 c 17.88228,-2.67236 37.10013,-3.85127 65.52908,6.56572 l 4.40542,10.47744 0.60037,12.58397 -2.78887,10.0319 8.24305,9.4873 0.7399,13.57418 1.14488,7.64183 2.74399,2.6113 0.67237,1.77272 -1.9517,15.97321 6.26262,9.76636 1.01895,15.55462 2.85986,14.28535 2.91563,15.83738 0.71021,-14.14821 -1.04694,-13.44076 0.79397,-14.71004 -4.4497,-8.92177 2.48779,-9.99749 2.975,4.65935 2.38356,8.62083 12.34318,7.72307 10.11447,9.73127 14.49839,7.12718 -11.52677,-9.80477 -8.62866,-11.07006 -10.85737,-9.06187 -0.89775,-9.95962 -5.06115,-11.59244 -6.51788,-6.20272 0.77653,-9.21221 -6.43014,-8.64272 4.60179,-9.18731 1.21255,-11.73938 -3.29373,-10.6759 c 1.65396,0.81316 3.33549,1.66114 5.04557,2.54521 29.88855,15.45087 50.19836,40.03522 61.43999,63.40485 2.09415,4.35312 4.59029,10.41534 6.95417,16.9734 z"
       stroke-miterlimit="10"
       id="path214"
       style="fill:#333333;fill-opacity:1;stroke:none;stroke-width:1;stroke-linejoin:miter;stroke-miterlimit:10"
       inkscape:connector-curvature="0" />
    <path
       d="m 234.68443,727.4374 c 0.11137,-3.39883 -0.34839,-6.72745 -1.37927,-9.98587 -1.03088,-3.25842 -2.67838,-6.21536 -4.94251,-8.87083 -2.57956,-3.00579 -5.57681,-5.36589 -8.99177,-7.0803 -3.41495,-1.71441 -7.0864,-2.67454 -11.01435,-2.88039 l -0.0999,-0.005 c -3.92794,-0.20585 -7.663,0.36612 -11.20516,1.71592 -3.54216,1.3498 -6.78634,3.3828 -9.73253,6.099 -2.46272,2.40774 -4.4129,5.22621 -5.85054,8.45539 -1.43764,3.22919 -2.2402,6.44159 -2.40767,9.6372 l -0.91065,17.37615 c -0.14277,3.99801 0.24263,7.79004 1.15621,11.3761 0.91357,3.58606 2.59531,6.84521 5.0452,9.77745 2.64613,3.00928 5.67668,5.37112 9.09163,7.08553 3.41495,1.71441 7.05312,2.67279 10.91448,2.87516 l 0.0999,0.005 c 3.92794,0.20585 7.67964,-0.36525 11.25509,-1.7133 3.57545,-1.34806 6.80473,-3.41522 9.68784,-6.20148 2.80955,-2.6566 4.8604,-5.80358 6.15253,-9.44094 1.29214,-3.63736 2.03241,-7.25357 2.22082,-10.84864 z m -64.78657,59.19045 5.47434,-104.45665 1099.0917,57.60095 -5.4744,104.45665 z m 76.60633,-86.00861 -3.8938,74.29804 17.07657,0.89494 1.3712,-26.16409 5.59233,0.29308 c 3.19561,0.16748 6.12217,-0.26328 8.77966,-1.29228 2.6575,-1.02899 4.95748,-2.56072 6.89995,-4.59518 1.94247,-2.03446 3.48978,-4.49018 4.64193,-7.36716 1.15215,-2.87698 1.82243,-6.113 2.01084,-9.70807 0.1919,-3.66164 -0.13384,-6.99993 -0.9772,-10.01487 -0.84337,-3.01494 -2.12551,-5.61894 -3.84642,-7.81201 -1.72092,-2.19307 -3.84993,-3.92353 -6.38706,-5.19139 -2.53712,-1.26785 -5.40349,-1.98552 -8.59911,-2.15299 z m 98.68412,21.99487 0.87924,-16.77698 -45.53751,-2.38652 -3.8938,74.29804 45.53751,2.38652 0.87924,-16.77698 -28.76053,-1.50728 0.62803,-11.98355 21.17095,1.10952 0.87924,-16.77698 -21.17095,-1.10952 0.62803,-11.98355 z m 48.81346,-14.26485 -1.91026,36.44998 -17.96247,-37.49146 -17.07657,-0.89494 -3.8938,74.29804 17.77561,0.93158 1.9155,-36.54984 18.05709,37.59656 16.9767,0.88971 3.8938,-74.29804 z m 70.00479,78.1709 3.8938,-74.29804 -16.77698,-0.87924 -3.8938,74.29804 z m 51.62829,-71.79638 -1.91026,36.44998 -17.96247,-37.49146 -17.07657,-0.89494 -3.8938,74.29804 17.77561,0.93158 1.9155,-36.54984 18.05709,37.59656 16.9767,0.88971 3.8938,-74.29804 z m 71.92084,20.59227 0.87924,-16.77698 -45.53751,-2.38652 -3.8938,74.29804 16.77698,0.87924 1.50728,-28.76053 21.17095,1.10952 0.87924,-16.77698 -21.17095,-1.10952 0.62803,-11.98355 z m 53.2083,60.46757 -13.52493,-30.44957 c 0.86548,0.0454 2.08739,-0.34122 3.66572,-1.15974 1.57833,-0.81852 3.1627,-2.07065 4.75311,-3.75639 1.5904,-1.68574 3.00289,-3.79805 4.23746,-6.33691 1.23457,-2.53887 1.93908,-5.47268 2.11353,-8.80145 0.16748,-3.19561 -0.0391,-6.26062 -0.61962,-9.19503 -0.58055,-2.93441 -1.66297,-5.52794 -3.24724,-7.78061 -1.58428,-2.25267 -3.75712,-4.10225 -6.51853,-5.54876 -2.76141,-1.4465 -6.27253,-2.28141 -10.53335,-2.50471 l -22.66889,-1.18803 -3.8938,74.29804 16.77698,0.87924 1.26653,-24.16683 0.19973,0.0105 8.71977,24.69019 z m 49.35945,-17.04007 5.66503,19.92379 19.07382,0.99962 -17.87633,-75.43896 -22.3693,-1.17233 -25.66392,73.15711 19.07382,0.99962 7.61674,-19.22772 z m 87.43284,5.48339 c 0.19888,-3.79479 -0.29504,-7.10852 -1.48175,-9.94117 -1.18671,-2.83266 -2.82099,-5.40505 -4.90283,-7.71717 -2.08185,-2.31212 -4.49214,-4.40781 -7.23087,-6.28705 -2.73873,-1.87924 -5.59398,-3.76459 -8.56572,-5.65605 -2.11325,-1.71295 -3.66053,-3.07913 -4.64186,-4.09855 -0.98133,-1.01942 -1.43884,-2.1616 -1.37255,-3.42653 0.0872,-1.66438 0.70189,-2.88388 1.844,-3.65851 1.14211,-0.77462 2.37891,-1.12704 3.71042,-1.05726 1.26493,0.0663 2.36611,0.39104 3.30354,0.97423 0.93743,0.58319 1.7356,1.27592 2.39452,2.07817 0.65892,0.80225 1.16455,1.66323 1.5169,2.58293 0.35235,0.9197 0.6092,1.75095 0.77054,2.49374 l 14.9834,-5.02271 c -0.2282,-2.0147 -0.8217,-4.06524 -1.78049,-6.15161 -0.95879,-2.08637 -2.34501,-3.97818 -4.15867,-5.67543 -1.81366,-1.69725 -4.07489,-3.13423 -6.78368,-4.31094 -2.70879,-1.17671 -5.89401,-1.86102 -9.55565,-2.05292 -3.06595,-0.0939 -6.05298,0.21684 -8.96107,0.93229 -2.9081,0.71545 -5.50425,1.8478 -7.78846,3.39704 -2.28421,1.54924 -4.15662,3.52062 -5.61722,5.91412 -1.4606,2.3935 -2.27638,5.22135 -2.44735,8.48354 -0.18492,3.52849 0.27738,6.49008 1.38691,8.88476 1.10953,2.39468 2.69729,4.58078 4.76329,6.55828 2.066,1.9775 4.50253,3.89098 7.30959,5.74042 2.80705,1.84944 5.84894,3.99492 9.12565,6.43642 1.47541,1.14545 2.60391,2.22266 3.38551,3.23161 0.7816,1.00896 1.17603,2.08107 1.18329,3.21634 -0.0311,1.8676 -0.6186,3.20535 -1.76245,4.01326 -1.14385,0.80791 -2.28515,1.24878 -3.42391,1.32262 -1.34197,0.12994 -2.57543,-0.21842 -3.70038,-1.04509 -1.12494,-0.82667 -2.06157,-1.74362 -2.80988,-2.75083 -0.74831,-1.00721 -1.31616,-1.95489 -1.70354,-2.84305 -0.38738,-0.88816 -0.51275,-1.36204 -0.37611,-1.42163 l -16.32872,5.85344 c 0.52619,2.6979 1.48331,5.13467 2.87134,7.31029 1.38804,2.17563 3.10888,4.05159 5.16253,5.6279 2.05365,1.57631 4.3744,2.83282 6.96226,3.76954 2.58786,0.93672 5.37973,1.48359 8.37562,1.64059 3.86137,0.20237 7.34683,-0.0656 10.4564,-0.80386 3.10957,-0.73827 5.78719,-1.83297 8.03288,-3.28409 2.24569,-1.45113 4.03931,-3.19297 5.38086,-5.22555 1.34155,-2.03257 2.1417,-4.24373 2.40046,-6.63346 z m 60.6359,-52.59864 -50.53065,-2.6482 -0.87924,16.77698 16.87684,0.88448 -3.01455,57.52106 16.77698,0.87924 3.01455,-57.52106 16.87684,0.88448 z m 53.62727,77.31258 -13.52493,-30.44957 c 0.86548,0.0454 2.08739,-0.34122 3.66572,-1.15974 1.57833,-0.81852 3.1627,-2.07065 4.75311,-3.75639 1.5904,-1.68574 3.00289,-3.79805 4.23746,-6.33691 1.23457,-2.53887 1.93908,-5.47268 2.11353,-8.80145 0.16748,-3.19561 -0.0391,-6.26062 -0.61962,-9.19503 -0.58055,-2.93441 -1.66297,-5.52794 -3.24724,-7.78061 -1.58428,-2.25267 -3.75712,-4.10225 -6.51853,-5.54876 -2.76141,-1.4465 -6.27253,-2.28141 -10.53335,-2.50471 l -22.66889,-1.18803 -3.8938,74.29804 16.77698,0.87924 1.26653,-24.16683 0.19973,0.0105 8.71977,24.69019 z m 69.50899,-70.95942 -17.27629,-0.90541 -2.27661,43.44038 c -0.0942,1.79753 -0.36626,3.48561 -0.81616,5.06423 -0.4499,1.57862 -1.08906,2.94704 -1.91748,4.10527 -0.82842,1.15823 -1.86012,2.05547 -3.09511,2.6917 -1.23499,0.63624 -2.68468,0.91074 -4.34906,0.82352 -1.66438,-0.0872 -3.07743,-0.51176 -4.23915,-1.27361 -1.16172,-0.76184 -2.11063,-1.76288 -2.84673,-3.0031 -0.7361,-1.24022 -1.24536,-2.66883 -1.52779,-4.28583 -0.28243,-1.617 -0.37654,-3.32426 -0.28233,-5.1218 l 2.27661,-43.44038 -17.27629,-0.90541 -2.34465,44.7386 c -0.20585,3.92794 0.0797,7.71474 0.85662,11.3604 0.77693,3.64566 2.15821,6.90575 4.14382,9.78027 1.98561,2.87453 4.63422,5.19966 7.94582,6.97541 3.3116,1.77575 7.39915,2.75769 12.26263,2.94581 l 0.0999,0.005 c 4.39048,0.29685 8.28761,-0.18318 11.69139,-1.44009 3.40378,-1.25692 6.28972,-3.14179 8.65781,-5.65463 2.36809,-2.51284 4.23062,-5.56955 5.58759,-9.17014 1.35697,-3.60058 2.15059,-7.59786 2.38087,-11.99183 z m 35.11216,59.91974 c -3.38138,-0.44424 -6.03857,-1.96873 -7.97157,-4.57347 -1.93299,-2.60473 -2.80354,-5.73792 -2.61164,-9.39956 l 0.75887,-14.48013 c 0.1919,-3.66164 1.3668,-6.65425 3.52469,-8.97784 2.1579,-2.32358 4.94149,-3.52955 8.35079,-3.61791 1.40157,0.007 2.71916,0.34278 3.95266,1.00825 1.2335,0.66547 2.3234,1.52369 3.2697,2.57465 0.9463,1.05097 1.7358,2.22723 2.3686,3.5288 0.6327,1.30157 1.1174,2.56199 1.4541,3.78128 l 14.904,-7.33003 c -0.6137,-2.30194 -1.5103,-4.61871 -2.6899,-6.95031 -1.1796,-2.3316 -2.7709,-4.45111 -4.7738,-6.35855 -2.0029,-1.90744 -4.4394,-3.50381 -7.3093,-4.78911 -2.87,-1.2853 -6.3356,-2.03436 -10.39668,-2.2472 l -0.0999,-0.005 c -4.5937,-0.24075 -8.66599,0.397 -12.21687,1.91324 -3.55089,1.51624 -6.54802,3.61225 -8.99141,6.28804 -2.44339,2.67579 -4.34095,5.76405 -5.69268,9.26477 -1.35173,3.50072 -2.15684,7.08016 -2.41531,10.73831 l -0.80597,15.37889 c -0.003,3.87183 0.40202,7.61481 1.21399,11.22892 0.81196,3.61411 2.22914,6.82602 4.25153,9.63571 2.02239,2.80969 4.70603,5.10329 8.05092,6.88078 3.34489,1.77749 7.5472,2.79883 12.60692,3.06399 l 0.0999,0.005 c 4.52712,0.23726 8.37256,-0.2121 11.53636,-1.34808 3.1638,-1.13598 5.7914,-2.5504 7.8829,-4.24326 2.0914,-1.69286 3.7353,-3.44256 4.9315,-5.2491 1.1961,-1.80654 2.1252,-3.29329 2.7872,-4.46024 l -14.0562,-8.84777 c -1.1208,2.2778 -2.6734,4.19917 -4.6581,5.76412 -1.9846,1.56494 -4.40302,2.17254 -7.25529,1.82278 z m 90.7099,-53.22555 -50.5306,-2.6482 -0.8793,16.77698 16.8769,0.88448 -3.0146,57.52106 16.777,0.87924 3.0146,-57.52106 16.8768,0.88448 z m 65.016,3.30721 -17.2762,-0.90541 -2.2767,43.44038 c -0.094,1.79753 -0.3662,3.48561 -0.8161,5.06423 -0.4499,1.57862 -1.0891,2.94704 -1.9175,4.10527 -0.8284,1.15823 -1.8601,2.05547 -3.0951,2.6917 -1.235,0.63624 -2.6847,0.91074 -4.3491,0.82352 -1.6643,-0.0872 -3.0774,-0.51176 -4.2391,-1.27361 -1.1617,-0.76184 -2.1107,-1.76288 -2.8468,-3.0031 -0.7361,-1.24022 -1.2453,-2.66883 -1.5277,-4.28583 -0.2825,-1.617 -0.3766,-3.32426 -0.2824,-5.1218 l 2.2766,-43.44038 -17.2763,-0.90541 -2.3446,44.7386 c -0.2059,3.92794 0.08,7.71474 0.8566,11.3604 0.7769,3.64566 2.1582,6.90575 4.1438,9.78027 1.9856,2.87453 4.6343,5.19966 7.9459,6.97541 3.3116,1.77575 7.3991,2.75769 12.2626,2.94581 l 0.1,0.005 c 4.3905,0.29685 8.2877,-0.18318 11.6914,-1.44009 3.4038,-1.25692 6.2898,-3.14179 8.6578,-5.65463 2.3681,-2.51284 4.2307,-5.56955 5.5876,-9.17014 1.357,-3.60058 2.1506,-7.59786 2.3809,-11.99183 z m 53.7219,77.41768 -13.5249,-30.44957 c 0.8655,0.0454 2.0874,-0.34122 3.6657,-1.15974 1.5784,-0.81852 3.1627,-2.07065 4.7531,-3.75639 1.5904,-1.68574 3.0029,-3.79805 4.2375,-6.33691 1.2346,-2.53887 1.9391,-5.47268 2.1135,-8.80145 0.1675,-3.19561 -0.039,-6.26062 -0.6196,-9.19503 -0.5805,-2.93441 -1.663,-5.52794 -3.2472,-7.78061 -1.5843,-2.25267 -3.7571,-4.10225 -6.5186,-5.54876 -2.7614,-1.4465 -6.2725,-2.28141 -10.5333,-2.50471 l -22.6689,-1.18803 -3.8938,74.29804 16.777,0.87924 1.2665,-24.16683 0.1997,0.0105 8.7198,24.69019 z m 60.4358,-54.51174 0.8792,-16.77698 -45.5375,-2.38652 -3.8938,74.29804 45.5375,2.38652 0.8793,-16.77698 -28.7606,-1.50728 0.6281,-11.98355 21.1709,1.10952 0.8793,-16.77698 -21.171,-1.10952 0.628,-11.98355 z"
       stroke-miterlimit="10"
       id="path216"
       inkscape:connector-curvature="0"
       style="fill:#fe5000;stroke:none;stroke-width:1;stroke-linejoin:miter;stroke-miterlimit:10" />
    <path
       d="m 1065.7748,875.90145 c -0.1056,-3.39803 -0.7771,-6.6985 -2.0146,-9.90131 -1.2374,-3.20282 -3.0714,-6.07499 -5.5021,-8.61651 -2.768,-2.87604 -5.9119,-5.08734 -9.432,-6.63398 -3.5199,-1.54674 -7.248,-2.32812 -11.1841,-2.34422 l -0.1006,-6.6e-4 c -3.9361,-0.0162 -7.6299,0.7349 -11.0814,2.25287 -3.4516,1.51813 -6.5621,3.70387 -9.3313,6.55722 -2.3059,2.52203 -4.0739,5.42948 -5.3037,8.72204 -1.2298,3.29266 -1.8264,6.53797 -1.7898,9.73584 l 0.1988,17.38854 c 0.1125,3.9977 0.7396,7.76429 1.8805,11.29981 1.1412,3.5355 3.0286,6.70771 5.6624,9.51654 2.8347,2.87628 6.0121,5.08775 9.5321,6.63439 3.52,1.54673 7.2147,2.32803 11.084,2.34381 l 0.1006,6.6e-4 c 3.9362,0.0162 7.6466,-0.73478 11.1316,-2.25273 3.485,-1.51796 6.5782,-3.73709 9.28,-6.65722 2.6365,-2.78729 4.484,-6.02743 5.5425,-9.72048 1.0585,-3.69306 1.5671,-7.33836 1.526,-10.93607 z m -60.9289,62.20633 -1.1957,-104.53142 266.5873,1.09268 1.1957,104.53142 z m 118.206,-15.00465 -15.4501,-29.74242 c 0.8673,0.003 2.063,-0.44126 3.587,-1.33438 1.5242,-0.89311 3.0267,-2.21929 4.5076,-3.97871 1.4808,-1.75932 2.7568,-3.93587 3.8279,-6.52965 1.071,-2.59377 1.5875,-5.55629 1.5494,-8.88745 -0.037,-3.19787 -0.4385,-6.24737 -1.2054,-9.14852 -0.767,-2.90104 -2.0135,-5.43772 -3.7395,-7.60994 -1.7259,-2.17223 -4.0139,-3.9137 -6.8642,-5.22448 -2.8501,-1.31079 -6.4101,-1.97489 -10.6797,-1.9924 l -22.716,-0.0931 0.8505,74.35119 16.8118,0.069 -0.2767,-24.18413 0.2002,7.9e-4 10.2836,24.22515 z m 39.0809,-38.91236 c 1.2008,0.005 2.4634,-0.42287 3.7877,-1.28349 1.3244,-0.86062 2.5282,-2.05493 3.6115,-3.58266 1.0832,-1.52782 1.9629,-3.35625 2.639,-5.48538 0.6761,-2.12903 0.9993,-4.49271 0.9696,-7.09102 -0.028,-2.46502 -0.4879,-4.76537 -1.3798,-6.9008 -0.8917,-2.13554 -2.2139,-4.00624 -3.9668,-5.61229 -1.7529,-1.60614 -4.0022,-2.88114 -6.7481,-3.825 -2.746,-0.94395 -5.9535,-1.42349 -9.6228,-1.43844 l -17.3121,-0.071 0.8504,74.3512 24.3171,0.0996 c 3.269,0.0134 6.1313,-0.52493 8.5872,-1.61361 2.4558,-1.08916 4.4901,-2.5798 6.1029,-4.47183 1.6127,-1.89211 2.8219,-4.06891 3.6277,-6.53057 0.8057,-2.46165 1.1929,-5.05823 1.1617,-7.78972 -0.021,-1.86545 -0.3449,-3.89873 -0.9704,-6.09976 -0.6256,-2.20093 -1.5994,-4.23684 -2.9217,-6.10764 -1.3222,-1.8708 -3.0245,-3.42671 -5.1067,-4.66764 -2.0822,-1.24102 -4.6244,-1.8677 -7.6264,-1.87994 z m 43.6773,39.25157 -0.8505,-74.35119 -16.8118,-0.0689 0.8504,74.35119 z m 58.9915,-74.10595 -50.6355,-0.20751 0.192,16.78896 16.9118,0.0693 0.6585,57.56223 16.8118,0.0689 -0.6584,-57.56222 16.9119,0.0693 z"
       stroke-miterlimit="10"
       id="path218"
       inkscape:connector-curvature="0"
       style="fill:#fe5000;stroke:none;stroke-width:1;stroke-linejoin:miter;stroke-miterlimit:10" />
  </g>
</svg>
